<?xml version="1.0" encoding="UTF-8" standalone="no"?>
<svg width="135px" height="40px" viewBox="0 0 135 40" version="1.1" xmlns="http://www.w3.org/2000/svg" xmlns:xlink="http://www.w3.org/1999/xlink" xmlns:sketch="http://www.bohemiancoding.com/sketch/ns">
    <!-- Generator: Sketch 3.0.3 (7892) - http://www.bohemiancoding.com/sketch -->
    <title>Slice 1</title>
    <desc>Created with Sketch.</desc>
    <defs></defs>
    <g id="Page-1" stroke="none" stroke-width="1" fill="none" fill-rule="evenodd" sketch:type="MSPage">
        <g id="Download_on_the_App_Store_Badge_US-UK_135x40" sketch:type="MSLayerGroup">
            <g id="Group" sketch:type="MSShapeGroup">
                <path d="M130.197,40 L4.729,40 C2.122,40 0,37.872 0,35.267 L0,4.726 C0,2.12 2.122,0 4.729,0 L130.197,0 C132.803,0 135,2.12 135,4.726 L135,35.267 C135,37.872 132.803,40 130.197,40 L130.197,40 L130.197,40 Z" id="Shape" fill="#A6A6A6"></path>
                <path d="M134.032,35.268 C134.032,37.384 132.318,39.098 130.198,39.098 L4.729,39.098 C2.61,39.098 0.89,37.384 0.89,35.268 L0.89,4.725 C0.89,2.61 2.61,0.89 4.729,0.89 L130.197,0.89 C132.318,0.89 134.031,2.61 134.031,4.725 L134.032,35.268 L134.032,35.268 Z" id="Shape" fill="#000000"></path>
                <g transform="translate(13.000000, 6.000000)" id="Shape" fill="#FFFFFF">
                    <path d="M17.128,13.784 C17.099,10.561 19.767,8.993 19.889,8.92 C18.378,6.717 16.036,6.416 15.213,6.392 C13.246,6.185 11.338,7.569 10.336,7.569 C9.314,7.569 7.771,6.412 6.108,6.446 C3.968,6.479 1.966,7.718 0.868,9.642 C-1.398,13.565 0.292,19.33 2.463,22.501 C3.549,24.054 4.818,25.788 6.479,25.727 C8.104,25.66 8.711,24.691 10.672,24.691 C12.615,24.691 13.185,25.727 14.879,25.688 C16.623,25.66 17.721,24.128 18.769,22.561 C20.024,20.781 20.528,19.028 20.548,18.938 C20.507,18.924 17.161,17.647 17.128,13.784 L17.128,13.784 Z"></path>
                    <path d="M13.928,4.306 C14.802,3.213 15.4,1.726 15.234,0.217 C13.969,0.273 12.387,1.092 11.476,2.161 C10.67,3.103 9.95,4.647 10.136,6.099 C11.557,6.205 13.016,5.382 13.928,4.306 L13.928,4.306 Z"></path>
                </g>
                <g transform="translate(42.000000, 18.000000)" id="Shape" fill="#FFFFFF">
                    <path d="M11.645,13.504 L9.374,13.504 L8.13,9.595 L3.806,9.595 L2.621,13.504 L0.41,13.504 L4.694,0.196 L7.34,0.196 L11.645,13.504 L11.645,13.504 Z M7.755,7.955 L6.63,4.48 C6.511,4.125 6.288,3.289 5.959,1.973 L5.919,1.973 C5.788,2.539 5.577,3.375 5.287,4.48 L4.182,7.955 L7.755,7.955 L7.755,7.955 Z"></path>
                    <path d="M22.662,8.588 C22.662,10.22 22.221,11.51 21.339,12.457 C20.549,13.3 19.568,13.721 18.397,13.721 C17.133,13.721 16.225,13.267 15.672,12.359 L15.632,12.359 L15.632,17.414 L13.5,17.414 L13.5,7.067 C13.5,6.041 13.473,4.988 13.421,3.908 L15.296,3.908 L15.415,5.429 L15.455,5.429 C16.166,4.283 17.245,3.711 18.693,3.711 C19.825,3.711 20.77,4.158 21.526,5.053 C22.284,5.949 22.662,7.127 22.662,8.588 L22.662,8.588 Z M20.49,8.666 C20.49,7.732 20.28,6.962 19.858,6.356 C19.397,5.724 18.778,5.408 18.002,5.408 C17.476,5.408 16.998,5.584 16.571,5.931 C16.143,6.281 15.863,6.738 15.732,7.304 C15.666,7.568 15.633,7.784 15.633,7.954 L15.633,9.554 C15.633,10.252 15.847,10.841 16.275,11.322 C16.703,11.803 17.259,12.043 17.943,12.043 C18.746,12.043 19.371,11.733 19.818,11.115 C20.266,10.496 20.49,9.68 20.49,8.666 L20.49,8.666 Z"></path>
                    <path d="M33.699,8.588 C33.699,10.22 33.258,11.51 32.375,12.457 C31.586,13.3 30.605,13.721 29.434,13.721 C28.17,13.721 27.262,13.267 26.71,12.359 L26.67,12.359 L26.67,17.414 L24.538,17.414 L24.538,7.067 C24.538,6.041 24.511,4.988 24.459,3.908 L26.334,3.908 L26.453,5.429 L26.493,5.429 C27.203,4.283 28.282,3.711 29.731,3.711 C30.862,3.711 31.807,4.158 32.565,5.053 C33.32,5.949 33.699,7.127 33.699,8.588 L33.699,8.588 Z M31.527,8.666 C31.527,7.732 31.316,6.962 30.894,6.356 C30.433,5.724 29.816,5.408 29.039,5.408 C28.512,5.408 28.035,5.584 27.607,5.931 C27.179,6.281 26.9,6.738 26.769,7.304 C26.704,7.568 26.67,7.784 26.67,7.954 L26.67,9.554 C26.67,10.252 26.884,10.841 27.31,11.322 C27.738,11.802 28.294,12.043 28.98,12.043 C29.783,12.043 30.408,11.733 30.855,11.115 C31.303,10.496 31.527,9.68 31.527,8.666 L31.527,8.666 Z"></path>
                    <path d="M46.039,9.772 C46.039,10.904 45.646,11.825 44.857,12.536 C43.99,13.313 42.783,13.701 41.232,13.701 C39.8,13.701 38.652,13.425 37.783,12.872 L38.277,11.095 C39.213,11.661 40.24,11.945 41.359,11.945 C42.162,11.945 42.787,11.763 43.236,11.401 C43.683,11.039 43.906,10.553 43.906,9.947 C43.906,9.407 43.722,8.952 43.353,8.583 C42.986,8.214 42.373,7.871 41.517,7.554 C39.187,6.685 38.023,5.412 38.023,3.738 C38.023,2.644 38.431,1.747 39.248,1.049 C40.062,0.35 41.148,0.001 42.506,0.001 C43.717,0.001 44.723,0.212 45.526,0.633 L44.993,2.371 C44.243,1.963 43.395,1.759 42.446,1.759 C41.696,1.759 41.11,1.944 40.69,2.312 C40.335,2.641 40.157,3.042 40.157,3.517 C40.157,4.043 40.36,4.478 40.768,4.82 C41.123,5.136 41.768,5.478 42.704,5.847 C43.849,6.308 44.69,6.847 45.231,7.465 C45.77,8.081 46.039,8.852 46.039,9.772 L46.039,9.772 Z"></path>
                    <path d="M53.088,5.508 L50.738,5.508 L50.738,10.167 C50.738,11.352 51.152,11.944 51.982,11.944 C52.363,11.944 52.679,11.911 52.929,11.845 L52.988,13.464 C52.568,13.621 52.015,13.7 51.33,13.7 C50.488,13.7 49.83,13.443 49.355,12.93 C48.882,12.416 48.644,11.554 48.644,10.343 L48.644,5.506 L47.244,5.506 L47.244,3.906 L48.644,3.906 L48.644,2.149 L50.738,1.517 L50.738,3.906 L53.088,3.906 L53.088,5.508 L53.088,5.508 Z"></path>
                    <path d="M63.691,8.627 C63.691,10.102 63.269,11.313 62.427,12.26 C61.544,13.235 60.372,13.721 58.911,13.721 C57.503,13.721 56.382,13.254 55.546,12.32 C54.71,11.386 54.292,10.207 54.292,8.786 C54.292,7.299 54.722,6.081 55.585,5.134 C56.446,4.186 57.608,3.712 59.069,3.712 C60.477,3.712 61.61,4.179 62.465,5.114 C63.283,6.021 63.691,7.192 63.691,8.627 L63.691,8.627 Z M61.479,8.696 C61.479,7.811 61.29,7.052 60.907,6.419 C60.46,5.653 59.821,5.271 58.993,5.271 C58.136,5.271 57.485,5.654 57.038,6.419 C56.655,7.053 56.466,7.824 56.466,8.736 C56.466,9.621 56.655,10.38 57.038,11.012 C57.499,11.778 58.143,12.16 58.974,12.16 C59.788,12.16 60.427,11.77 60.888,10.992 C61.281,10.347 61.479,9.58 61.479,8.696 L61.479,8.696 Z"></path>
                    <path d="M70.621,5.783 C70.41,5.744 70.185,5.724 69.949,5.724 C69.199,5.724 68.619,6.007 68.211,6.574 C67.856,7.074 67.678,7.706 67.678,8.469 L67.678,13.504 L65.547,13.504 L65.567,6.93 C65.567,5.824 65.54,4.817 65.487,3.909 L67.344,3.909 L67.422,5.745 L67.481,5.745 C67.706,5.114 68.061,4.606 68.547,4.225 C69.022,3.882 69.535,3.711 70.088,3.711 C70.285,3.711 70.463,3.725 70.621,3.75 L70.621,5.783 L70.621,5.783 Z"></path>
                    <path d="M80.156,8.252 C80.156,8.634 80.131,8.956 80.078,9.219 L73.682,9.219 C73.707,10.167 74.016,10.892 74.61,11.392 C75.149,11.839 75.846,12.063 76.702,12.063 C77.649,12.063 78.513,11.912 79.29,11.609 L79.624,13.089 C78.716,13.485 77.644,13.682 76.407,13.682 C74.919,13.682 73.751,13.244 72.901,12.369 C72.053,11.494 71.628,10.319 71.628,8.845 C71.628,7.398 72.023,6.193 72.814,5.232 C73.642,4.206 74.761,3.693 76.169,3.693 C77.552,3.693 78.599,4.206 79.31,5.232 C79.873,6.047 80.156,7.055 80.156,8.252 L80.156,8.252 Z M78.123,7.699 C78.137,7.067 77.998,6.521 77.709,6.06 C77.34,5.467 76.773,5.171 76.01,5.171 C75.313,5.171 74.746,5.46 74.313,6.04 C73.958,6.501 73.747,7.054 73.682,7.698 L78.123,7.698 L78.123,7.699 Z"></path>
                </g>
                <g transform="translate(44.000000, 7.000000)" id="Shape" fill="#FFFFFF">
                    <path d="M5.05,3.009 C5.05,4.186 4.697,5.072 3.992,5.667 C3.339,6.216 2.411,6.491 1.209,6.491 C0.613,6.491 0.103,6.465 -0.324,6.413 L-0.324,-0.018 C0.233,-0.108 0.833,-0.154 1.481,-0.154 C2.626,-0.154 3.489,0.095 4.071,0.593 C4.723,1.156 5.05,1.961 5.05,3.009 L5.05,3.009 Z M3.945,3.038 C3.945,2.275 3.743,1.69 3.339,1.282 C2.935,0.875 2.345,0.671 1.568,0.671 C1.238,0.671 0.957,0.693 0.724,0.739 L0.724,5.628 C0.853,5.648 1.089,5.657 1.432,5.657 C2.234,5.657 2.853,5.434 3.289,4.988 C3.725,4.542 3.945,3.892 3.945,3.038 L3.945,3.038 Z"></path>
                    <path d="M10.909,4.037 C10.909,4.762 10.702,5.356 10.288,5.822 C9.854,6.301 9.279,6.54 8.561,6.54 C7.869,6.54 7.318,6.311 6.907,5.851 C6.497,5.392 6.292,4.813 6.292,4.115 C6.292,3.385 6.503,2.786 6.927,2.321 C7.351,1.856 7.921,1.623 8.639,1.623 C9.331,1.623 9.887,1.852 10.308,2.311 C10.708,2.757 10.909,3.333 10.909,4.037 L10.909,4.037 Z M9.822,4.071 C9.822,3.636 9.728,3.263 9.541,2.952 C9.321,2.576 9.008,2.388 8.601,2.388 C8.18,2.388 7.86,2.576 7.64,2.952 C7.452,3.263 7.359,3.642 7.359,4.09 C7.359,4.525 7.453,4.898 7.64,5.209 C7.867,5.585 8.183,5.773 8.591,5.773 C8.991,5.773 9.305,5.582 9.531,5.199 C9.725,4.882 9.822,4.506 9.822,4.071 L9.822,4.071 Z"></path>
                    <path d="M18.765,1.719 L17.29,6.433 L16.33,6.433 L15.719,4.386 C15.564,3.875 15.438,3.367 15.34,2.863 L15.321,2.863 C15.23,3.381 15.104,3.888 14.942,4.386 L14.293,6.433 L13.322,6.433 L11.935,1.719 L13.012,1.719 L13.545,3.96 C13.674,4.49 13.78,4.995 13.865,5.473 L13.884,5.473 C13.962,5.079 14.091,4.577 14.273,3.97 L14.942,1.72 L15.796,1.72 L16.437,3.922 C16.592,4.459 16.718,4.976 16.815,5.474 L16.844,5.474 C16.915,4.989 17.022,4.472 17.164,3.922 L17.736,1.72 L18.765,1.72 L18.765,1.719 Z"></path>
                    <path d="M24.198,6.433 L23.15,6.433 L23.15,3.733 C23.15,2.901 22.834,2.485 22.2,2.485 C21.889,2.485 21.638,2.599 21.443,2.828 C21.25,3.057 21.152,3.327 21.152,3.636 L21.152,6.432 L20.104,6.432 L20.104,3.066 C20.104,2.652 20.091,2.203 20.066,1.717 L20.987,1.717 L21.036,2.454 L21.065,2.454 C21.187,2.225 21.369,2.036 21.608,1.885 C21.892,1.709 22.21,1.62 22.558,1.62 C22.998,1.62 23.364,1.762 23.655,2.047 C24.017,2.396 24.198,2.917 24.198,3.609 L24.198,6.433 L24.198,6.433 Z"></path>
                    <path d="M27.088,6.433 L26.041,6.433 L26.041,-0.444 L27.088,-0.444 L27.088,6.433 L27.088,6.433 Z"></path>
                    <path d="M33.258,4.037 C33.258,4.762 33.051,5.356 32.637,5.822 C32.203,6.301 31.627,6.54 30.91,6.54 C30.217,6.54 29.666,6.311 29.256,5.851 C28.846,5.392 28.641,4.813 28.641,4.115 C28.641,3.385 28.852,2.786 29.276,2.321 C29.7,1.856 30.27,1.623 30.987,1.623 C31.68,1.623 32.235,1.852 32.657,2.311 C33.057,2.757 33.258,3.333 33.258,4.037 L33.258,4.037 Z M32.17,4.071 C32.17,3.636 32.076,3.263 31.889,2.952 C31.67,2.576 31.356,2.388 30.95,2.388 C30.528,2.388 30.208,2.576 29.989,2.952 C29.801,3.263 29.708,3.642 29.708,4.09 C29.708,4.525 29.802,4.898 29.989,5.209 C30.216,5.585 30.532,5.773 30.94,5.773 C31.34,5.773 31.653,5.582 31.879,5.199 C32.074,4.882 32.17,4.506 32.17,4.071 L32.17,4.071 Z"></path>
                    <path d="M38.33,6.433 L37.389,6.433 L37.311,5.89 L37.282,5.89 C36.96,6.323 36.501,6.54 35.905,6.54 C35.46,6.54 35.1,6.397 34.829,6.113 C34.583,5.855 34.46,5.534 34.46,5.153 C34.46,4.577 34.7,4.138 35.183,3.834 C35.665,3.53 36.343,3.381 37.216,3.388 L37.216,3.3 C37.216,2.679 36.89,2.369 36.237,2.369 C35.772,2.369 35.362,2.486 35.008,2.718 L34.795,2.03 C35.233,1.759 35.774,1.623 36.412,1.623 C37.644,1.623 38.262,2.273 38.262,3.573 L38.262,5.309 C38.262,5.78 38.285,6.155 38.33,6.433 L38.33,6.433 Z M37.242,4.813 L37.242,4.086 C36.086,4.066 35.508,4.383 35.508,5.036 C35.508,5.282 35.574,5.466 35.709,5.589 C35.844,5.712 36.016,5.773 36.221,5.773 C36.451,5.773 36.666,5.7 36.862,5.555 C37.059,5.409 37.18,5.224 37.225,4.997 C37.236,4.946 37.242,4.884 37.242,4.813 L37.242,4.813 Z"></path>
                    <path d="M44.285,6.433 L43.355,6.433 L43.306,5.676 L43.277,5.676 C42.98,6.252 42.474,6.54 41.763,6.54 C41.195,6.54 40.722,6.317 40.347,5.871 C39.972,5.425 39.785,4.846 39.785,4.135 C39.785,3.372 39.988,2.754 40.396,2.282 C40.791,1.842 41.275,1.622 41.851,1.622 C42.484,1.622 42.927,1.835 43.179,2.262 L43.199,2.262 L43.199,-0.444 L44.248,-0.444 L44.248,5.163 C44.248,5.622 44.26,6.045 44.285,6.433 L44.285,6.433 Z M43.199,4.445 L43.199,3.659 C43.199,3.523 43.189,3.413 43.17,3.329 C43.111,3.077 42.984,2.865 42.791,2.694 C42.596,2.523 42.361,2.437 42.09,2.437 C41.699,2.437 41.393,2.592 41.168,2.903 C40.945,3.214 40.832,3.611 40.832,4.096 C40.832,4.562 40.939,4.94 41.154,5.231 C41.381,5.541 41.687,5.696 42.07,5.696 C42.414,5.696 42.689,5.567 42.898,5.308 C43.1,5.069 43.199,4.781 43.199,4.445 L43.199,4.445 Z"></path>
                    <path d="M53.248,4.037 C53.248,4.762 53.041,5.356 52.627,5.822 C52.193,6.301 51.619,6.54 50.9,6.54 C50.209,6.54 49.658,6.311 49.246,5.851 C48.836,5.392 48.631,4.813 48.631,4.115 C48.631,3.385 48.842,2.786 49.266,2.321 C49.69,1.856 50.26,1.623 50.979,1.623 C51.67,1.623 52.227,1.852 52.647,2.311 C53.047,2.757 53.248,3.333 53.248,4.037 L53.248,4.037 Z M52.162,4.071 C52.162,3.636 52.068,3.263 51.881,2.952 C51.66,2.576 51.348,2.388 50.94,2.388 C50.52,2.388 50.2,2.576 49.979,2.952 C49.791,3.263 49.698,3.642 49.698,4.09 C49.698,4.525 49.792,4.898 49.979,5.209 C50.206,5.585 50.522,5.773 50.93,5.773 C51.33,5.773 51.645,5.582 51.871,5.199 C52.064,4.882 52.162,4.506 52.162,4.071 L52.162,4.071 Z"></path>
                    <path d="M58.883,6.433 L57.836,6.433 L57.836,3.733 C57.836,2.901 57.52,2.485 56.885,2.485 C56.574,2.485 56.323,2.599 56.129,2.828 C55.935,3.057 55.838,3.327 55.838,3.636 L55.838,6.432 L54.789,6.432 L54.789,3.066 C54.789,2.652 54.777,2.203 54.752,1.717 L55.672,1.717 L55.721,2.454 L55.75,2.454 C55.873,2.225 56.055,2.036 56.293,1.885 C56.578,1.709 56.895,1.62 57.244,1.62 C57.683,1.62 58.049,1.762 58.34,2.047 C58.703,2.396 58.883,2.917 58.883,3.609 L58.883,6.433 L58.883,6.433 Z"></path>
                    <path d="M65.936,2.504 L64.782,2.504 L64.782,4.794 C64.782,5.376 64.987,5.667 65.393,5.667 C65.581,5.667 65.737,5.651 65.86,5.618 L65.887,6.413 C65.68,6.491 65.408,6.53 65.073,6.53 C64.659,6.53 64.337,6.404 64.104,6.152 C63.87,5.9 63.754,5.476 63.754,4.881 L63.754,2.504 L63.065,2.504 L63.065,1.719 L63.754,1.719 L63.754,0.855 L64.781,0.545 L64.781,1.718 L65.935,1.718 L65.935,2.504 L65.936,2.504 Z"></path>
                    <path d="M71.484,6.433 L70.435,6.433 L70.435,3.753 C70.435,2.908 70.119,2.485 69.486,2.485 C69,2.485 68.668,2.73 68.486,3.22 C68.455,3.323 68.437,3.449 68.437,3.597 L68.437,6.432 L67.39,6.432 L67.39,-0.444 L68.437,-0.444 L68.437,2.397 L68.457,2.397 C68.787,1.88 69.26,1.622 69.873,1.622 C70.307,1.622 70.666,1.764 70.951,2.049 C71.306,2.404 71.484,2.932 71.484,3.63 L71.484,6.433 L71.484,6.433 Z"></path>
                    <path d="M77.207,3.853 C77.207,4.041 77.193,4.199 77.168,4.328 L74.025,4.328 C74.039,4.794 74.189,5.149 74.48,5.395 C74.746,5.615 75.089,5.725 75.509,5.725 C75.974,5.725 76.398,5.651 76.78,5.502 L76.944,6.23 C76.497,6.424 75.971,6.521 75.362,6.521 C74.632,6.521 74.057,6.306 73.641,5.876 C73.223,5.446 73.016,4.869 73.016,4.145 C73.016,3.434 73.209,2.842 73.598,2.37 C74.004,1.866 74.553,1.614 75.246,1.614 C75.924,1.614 76.439,1.866 76.787,2.37 C77.068,2.77 77.207,3.265 77.207,3.853 L77.207,3.853 Z M76.207,3.582 C76.215,3.271 76.146,3.003 76.004,2.777 C75.822,2.486 75.545,2.34 75.17,2.34 C74.828,2.34 74.549,2.482 74.336,2.767 C74.162,2.994 74.059,3.265 74.025,3.582 L76.207,3.582 L76.207,3.582 Z"></path>
                </g>
            </g>
        </g>
    </g>
</svg>