<?xml version="1.0" standalone="no"?>
<!DOCTYPE svg PUBLIC "-//W3C//DTD SVG 1.1//EN" "http://www.w3.org/Graphics/SVG/1.1/DTD/svg11.dtd" >
<svg xmlns="http://www.w3.org/2000/svg">
<metadata></metadata>
<defs>
<font id="cytia_problack" horiz-adv-x="565" >
<font-face units-per-em="2048" ascent="1536" descent="-512" />
<missing-glyph horiz-adv-x="536" />
<glyph horiz-adv-x="2048" />
<glyph horiz-adv-x="2048" />
<glyph unicode="&#xd;" horiz-adv-x="2048" />
<glyph unicode=" "  horiz-adv-x="536" />
<glyph unicode="&#x09;" horiz-adv-x="536" />
<glyph unicode="&#xa0;" horiz-adv-x="536" />
<glyph unicode="!" d="M125 0v319h315v-319h-315zM125 475v959h315v-959h-315z" />
<glyph unicode="&#x22;" horiz-adv-x="1132" d="M125 1434h315l-49 -656h-217zM692 1434h318l-52 -656h-215z" />
<glyph unicode="#" horiz-adv-x="1636" d="M55 293v250h240l63 348h-190v250h231l54 293h342l-56 -293h305l54 293h342l-56 -293h197v-250h-238l-61 -348h191v-250h-236l-49 -293h-342l51 293h-305l-49 -293h-342l51 293h-197zM637 543h303l64 348h-306z" />
<glyph unicode="$" horiz-adv-x="1175" d="M68 186l170 174q115 -107 286 -104v326q-153 58 -209 88q-165 90 -204 241q-13 52 -13 113q0 182 120.5 296t305.5 130v188h117v-186q123 -11 215 -61.5t184 -143.5l-163 -178q-55 55 -107 79.5t-129 27.5v-326q16 -6 57.5 -22t61 -23.5t58 -25t59 -29.5t52.5 -33 t49.5 -40t39 -46t32.5 -55.5t19 -65t8 -76.5q0 -118 -60.5 -214t-157.5 -153t-218 -77v-195h-117v185q-136 1 -243 52.5t-213 153.5zM438 1040q0 -87 86 -137v264q-86 -34 -86 -127zM641 274q94 58 94 136q0 76 -94 127v-263z" />
<glyph unicode="%" horiz-adv-x="1892" d="M68 1151q0 153 97 248.5t255 95.5q154 0 251 -96t97 -248q0 -151 -97 -246.5t-251 -95.5q-158 0 -255 95.5t-97 246.5zM328 1151q0 -46 27 -78.5t65 -32.5t64 32.5t26 78.5q0 47 -26 80t-64 33t-65 -33t-27 -80zM352 0l856 1485h340l-856 -1485h-340zM1124 332 q0 153 97.5 248.5t255.5 95.5q155 0 251.5 -95.5t96.5 -248.5q0 -151 -96.5 -246.5t-251.5 -95.5q-158 0 -255.5 95.5t-97.5 246.5zM1384 332q0 -45 28 -78t65 -33q38 0 64 32.5t26 78.5q0 47 -26 79.5t-64 32.5q-37 0 -65 -32.5t-28 -79.5z" />
<glyph unicode="&#x26;" horiz-adv-x="1421" d="M72 418q0 76 17 138.5t50 108.5t70.5 79t87.5 61q-72 147 -72 282q0 162 115 264.5t297 102.5q184 0 300 -94.5t116 -253.5q0 -71 -19.5 -130.5t-48.5 -100t-76 -77.5t-88 -59.5t-98 -48.5q94 -111 258 -246q74 123 74 273h266q0 -252 -113 -434q47 -31 93 -58.5 t68 -38.5l22 -12l-197 -203q-76 41 -182 115q-174 -106 -432 -106q-222 0 -365 122t-143 316zM387 418q0 -82 56 -135.5t137 -53.5q103 0 190 35q-186 151 -307 297q-76 -60 -76 -143zM543 1087q0 -77 32 -165q79 35 120.5 76.5t41.5 107.5q0 44 -27 71t-71 27 q-40 0 -68 -33.5t-28 -83.5z" />
<glyph unicode="'" d="M125 1434h315l-49 -656h-217z" />
<glyph unicode="(" horiz-adv-x="688" d="M109 639q0 281 84.5 536.5t234.5 421.5l164 -170q-78 -114 -123 -328.5t-45 -459.5q0 -242 45.5 -457t124.5 -329l-166 -170q-150 166 -234.5 421t-84.5 535z" />
<glyph unicode=")" horiz-adv-x="688" d="M94 1427l166 170q150 -167 235 -422t85 -534q0 -281 -85 -536t-235 -422l-164 170q78 114 123 328.5t45 459.5q0 241 -46 456t-124 330z" />
<glyph unicode="*" horiz-adv-x="1073" d="M98 889l248 141l-248 144l97 169l247 -143v285h191v-285l248 143l94 -169l-250 -144l250 -141l-94 -170l-248 141v-282h-191v282l-247 -141z" />
<glyph unicode="+" horiz-adv-x="1153" d="M104 612v250h338v350h267v-350h340v-250h-340v-348h-267v348h-338z" />
<glyph unicode="," d="M-51 -317q85 87 130.5 257t45.5 379h315q0 -391 -368 -768z" />
<glyph unicode="-" horiz-adv-x="804" d="M125 469v250h555v-250h-555z" />
<glyph unicode="." d="M125 0v319h315v-319h-315z" />
<glyph unicode="/" horiz-adv-x="870" d="M-31 -205l615 1690h315l-616 -1690h-314z" />
<glyph unicode="0" horiz-adv-x="1292" d="M68 717q0 219 66.5 384.5t196.5 259t308 93.5q267 0 420 -202.5t153 -534.5t-153 -534.5t-420 -202.5q-178 0 -308 93.5t-196.5 259t-66.5 384.5zM395 715q0 -208 66 -340.5t178 -132.5q77 0 133.5 62t84.5 168t28 243q0 211 -65 344t-181 133q-112 0 -178 -133.5 t-66 -343.5z" />
<glyph unicode="1" horiz-adv-x="1087" d="M80 1116l502 318h329v-1434h-329v1079l-365 -207z" />
<glyph unicode="2" horiz-adv-x="1175" d="M70 1260q107 99 214 146.5t263 47.5q137 0 248.5 -49.5t179 -146t67.5 -222.5q0 -92 -29 -184.5t-75.5 -166.5t-103 -142.5t-113 -118.5t-103 -87t-75.5 -56l-29 -19h557v-262h-960v262q13 8 34.5 23t84 62t119.5 96t126.5 120t119.5 138.5t84 148t34 151.5q0 87 -48 139 t-147 52q-97 0 -156.5 -25t-121.5 -84z" />
<glyph unicode="3" horiz-adv-x="1179" d="M78 174l178 184q43 -57 123.5 -86.5t177.5 -29.5q98 0 163.5 55.5t65.5 138.5t-56.5 139t-141.5 56h-127v248h127q71 0 114 44t43 111q0 70 -52.5 114t-137.5 44q-87 0 -162 -32t-117 -89l-178 189q179 194 480 194q222 0 359.5 -103.5t137.5 -269.5q0 -109 -59.5 -192 t-167.5 -131q126 -53 196 -148t70 -219q0 -183 -148 -297t-386 -114q-302 0 -502 194z" />
<glyph unicode="4" horiz-adv-x="1458" d="M100 258v156l709 1020h373v-926h141v-250h-141v-258h-330v258h-752zM510 508h342v457z" />
<glyph unicode="5" horiz-adv-x="1163" d="M61 174l170 174q62 -58 125 -82t164 -24q111 0 164 52t53 142q0 92 -57 142.5t-150 50.5h-391v805h815v-263h-485v-280h92q224 0 364 -129.5t140 -335.5q0 -134 -68.5 -237t-182 -156t-251.5 -53q-164 0 -277 47.5t-225 146.5z" />
<glyph unicode="6" horiz-adv-x="1212" d="M68 717q0 333 154 535t427 202q262 0 430 -149l-168 -177q-86 64 -262 64q-96 0 -163.5 -90t-90.5 -248q107 78 228 78q235 0 380.5 -132t145.5 -347q0 -211 -143 -342t-373 -131q-265 0 -415 202t-150 535zM395 539q46 -297 230 -297q88 0 142 59t54 152q0 97 -58 157 t-153 60q-64 0 -124.5 -35t-90.5 -96z" />
<glyph unicode="7" horiz-adv-x="1312" d="M92 1171v263h1077v-156l-614 -1278h-330l561 1171h-694z" />
<glyph unicode="8" horiz-adv-x="1183" d="M68 391q0 124 69.5 219t194.5 148q-106 48 -164.5 131.5t-58.5 191.5q0 166 133.5 269.5t349.5 103.5t350.5 -103.5t134.5 -269.5q0 -108 -59.5 -191.5t-165.5 -131.5q125 -53 194.5 -148t69.5 -219q0 -183 -145.5 -297t-378.5 -114t-378.5 114t-145.5 297zM395 440 q0 -85 56 -141.5t139 -56.5q85 0 141.5 56.5t56.5 141.5q0 88 -56.5 145.5t-141.5 57.5q-83 0 -139 -58t-56 -145zM436 1026q0 -69 44.5 -114.5t109.5 -45.5q71 0 115.5 45t44.5 115q0 73 -44.5 119.5t-115.5 46.5q-65 0 -109.5 -47.5t-44.5 -118.5z" />
<glyph unicode="9" horiz-adv-x="1198" d="M68 975q0 214 141.5 346.5t370.5 132.5q174 0 301.5 -93.5t192.5 -259.5t65 -384q0 -332 -162.5 -534.5t-446.5 -202.5q-277 0 -450 149l168 174q92 -61 284 -61q103 0 177.5 87t99.5 240q-103 -69 -219 -69q-233 0 -377.5 132t-144.5 343zM395 975q0 -93 57.5 -153 t149.5 -60q59 0 117.5 33t89.5 90q-22 156 -80 231.5t-141 75.5q-87 0 -140 -60.5t-53 -156.5z" />
<glyph unicode=":" d="M125 0v319h315v-319h-315zM125 705v319h315v-319h-315z" />
<glyph unicode=";" d="M-51 -317q85 87 130.5 257t45.5 379h315q0 -391 -368 -768zM125 705v319h315v-319h-315z" />
<glyph unicode="&#x3c;" horiz-adv-x="1372" d="M100 621v204l1168 482v-312l-699 -270l699 -270v-318z" />
<glyph unicode="=" horiz-adv-x="1273" d="M125 346v250h1024v-250h-1024zM125 827v248h1024v-248h-1024z" />
<glyph unicode="&#x3e;" horiz-adv-x="1372" d="M102 131v313l699 271l-699 268v320l1168 -486v-205z" />
<glyph unicode="?" horiz-adv-x="1091" d="M70 1247q103 105 210 156t259 51q132 0 241.5 -45t176.5 -133.5t67 -204.5q0 -80 -19 -140.5t-49.5 -97.5t-67 -66t-73 -55t-67 -55t-49.5 -74.5t-19 -105.5h-315q0 94 19 166t49.5 114t67 73.5t73 53.5t67 44t49.5 55t19 78q0 55 -58 99t-147 44q-90 0 -152 -30 t-123 -91zM365 0v319h315v-319h-315z" />
<glyph unicode="@" horiz-adv-x="2213" d="M94 512q0 218 74 403t206 314.5t320.5 202.5t411.5 73q222 0 411 -63.5t321.5 -176.5t207 -273.5t74.5 -348.5q0 -144 -33 -259t-86 -187.5t-124.5 -121t-144 -68t-149.5 -19.5q-125 0 -218 46.5t-93 108.5q-100 -155 -301 -155q-167 0 -273 140.5t-106 363.5 q0 246 162 399t420 153q106 0 195 -17t181 -64v-584q0 -65 26.5 -103t63.5 -38q64 0 114 102.5t50 302.5q0 174 -87 313t-247 219t-364 80q-196 0 -355.5 -96t-250 -266t-90.5 -381t90.5 -381t250 -266t355.5 -96q180 0 331 43t238 122l158 -161q-288 -254 -727 -254 q-223 0 -411.5 73t-320.5 202.5t-206 314.5t-74 403zM909 492q0 -110 49.5 -182t126.5 -72q62 0 107 32.5t43 59.5v448q-50 17 -113 17q-94 0 -153.5 -85t-59.5 -218z" />
<glyph unicode="A" horiz-adv-x="1787" d="M78 0l643 1434h348l641 -1434h-326l-135 289h-708l-131 -289h-332zM662 563h471l-240 520z" />
<glyph unicode="B" horiz-adv-x="1353" d="M125 0v1434h653q171 0 278 -100.5t107 -260.5q0 -102 -37.5 -182.5t-105.5 -126.5q107 -37 169 -137t62 -238q0 -173 -115 -281t-302 -108h-709zM465 274h248q82 0 133 47.5t51 120.5t-51 120.5t-133 47.5h-248v-336zM465 885h205q68 0 109.5 39t41.5 98t-41.5 98 t-109.5 39h-205v-274z" />
<glyph unicode="C" horiz-adv-x="1435" d="M68 717q0 215 94.5 383t265 261t389.5 93q326 0 549 -207l-197 -203q-52 64 -139.5 99t-193.5 35q-191 0 -309.5 -129.5t-118.5 -335.5q0 -202 118.5 -329.5t309.5 -127.5q106 0 193 35t140 98l197 -203q-209 -206 -551 -206q-219 0 -389.5 93t-264 260.5t-93.5 383.5z " />
<glyph unicode="D" horiz-adv-x="1552" d="M125 0v1434h627q216 0 382.5 -89.5t258.5 -252.5t92 -375t-92 -375t-258.5 -252.5t-382.5 -89.5h-627zM465 274h287q171 0 282 125.5t111 317.5t-110.5 317t-282.5 125h-287v-885z" />
<glyph unicode="E" horiz-adv-x="1318" d="M125 0v1434h1046v-275h-706v-297h641v-276h-641v-312h729v-274h-1069z" />
<glyph unicode="F" horiz-adv-x="1296" d="M125 0v1434h1046v-275h-706v-313h645v-275h-645v-571h-340z" />
<glyph unicode="G" horiz-adv-x="1490" d="M68 717q0 215 94.5 383t265 261t389.5 93q326 0 549 -207l-197 -203q-52 64 -139.5 99t-193.5 35q-192 0 -310 -128.5t-118 -334.5q0 -202 118.5 -330.5t309.5 -128.5q102 0 190 18v297h-299v275h639v-660q-209 -206 -551 -206q-219 0 -389.5 93t-264 260.5t-93.5 383.5z " />
<glyph unicode="H" horiz-adv-x="1562" d="M125 0v1434h340v-572h633v572h340v-1434h-340v586h-633v-586h-340z" />
<glyph unicode="I" horiz-adv-x="589" d="M125 0v1434h340v-1434h-340z" />
<glyph unicode="J" horiz-adv-x="1161" d="M76 129l190 201q30 -34 81 -54t110 -20q106 0 172.5 70.5t66.5 185.5v922h340v-922q0 -236 -154.5 -384t-400.5 -148q-240 0 -405 149z" />
<glyph unicode="K" horiz-adv-x="1497" d="M125 0v1434h340v-531l524 531h418l-576 -594l601 -840h-381l-439 608l-147 -172v-436h-340z" />
<glyph unicode="L" horiz-adv-x="1320" d="M125 0v1434h340v-1160h731v-274h-1071z" />
<glyph unicode="M" horiz-adv-x="1990" d="M125 0v1434h457l413 -947l412 947h457v-1434h-340v944l-408 -944h-239l-412 944v-944h-340z" />
<glyph unicode="N" horiz-adv-x="1581" d="M125 0v1434h340l651 -899v899h340v-1434h-340l-651 899v-899h-340z" />
<glyph unicode="O" horiz-adv-x="1636" d="M68 717q0 216 93.5 383.5t264.5 260.5t391 93t392 -93t267 -260.5t95 -383.5t-95 -383.5t-267 -260.5t-392 -93t-391 93t-264.5 260.5t-93.5 383.5zM408 717q0 -199 117 -330t292 -131q182 0 297 130t115 331t-115 331t-297 130q-175 0 -292 -131t-117 -330z" />
<glyph unicode="P" horiz-adv-x="1302" d="M125 0v1434h618q220 0 357 -135.5t137 -350.5t-137 -350t-357 -135h-278v-463h-340zM465 739h242q84 0 136 58.5t52 150.5q0 93 -52 152t-136 59h-242v-420z" />
<glyph unicode="Q" horiz-adv-x="1763" d="M68 717q0 216 93.5 383.5t264.5 260.5t391 93t392 -93t267 -260.5t95 -383.5q0 -254 -133 -438l121 -115l-195 -201l-123 123q-180 -106 -424 -106q-220 0 -391 93t-264.5 260.5t-93.5 383.5zM408 717q0 -199 117 -330t292 -131q123 0 209 51l-199 195l193 200l182 -178 q27 91 27 193q0 201 -115 331t-297 130q-175 0 -292 -131t-117 -330z" />
<glyph unicode="R" horiz-adv-x="1370" d="M125 0v1434h649q203 0 328 -122t125 -319q0 -162 -85.5 -275.5t-232.5 -150.5l396 -567h-371l-385 551h-84v-551h-340zM465 825h270q65 0 108.5 48t43.5 120q0 70 -43.5 118t-108.5 48h-270v-334z" />
<glyph unicode="S" horiz-adv-x="1175" d="M68 186l170 174q112 -104 280 -104q93 0 155 43t62 111q0 47 -35 81.5t-91.5 58t-124.5 47t-135.5 57t-124 78t-91.5 119.5t-35 173q0 194 137.5 312t339.5 118q152 0 256.5 -50.5t208.5 -156.5l-163 -178q-61 59 -118 84t-149 25q-88 0 -130 -37t-42 -101q0 -42 22 -76 t59 -57t85 -43.5t101 -40t105.5 -41.5t100.5 -53t85 -70t59 -96.5t22 -128.5q0 -136 -77.5 -241t-201.5 -159t-270 -54q-139 0 -247 51t-213 155z" />
<glyph unicode="T" horiz-adv-x="1613" d="M100 1159v275h1413v-275h-536v-1159h-340v1159h-537z" />
<glyph unicode="U" horiz-adv-x="1570" d="M125 641v793h340v-793q0 -173 89 -279t230 -106q147 0 234.5 105t87.5 280v793h340v-793q0 -318 -177.5 -489.5t-484.5 -171.5q-310 0 -484.5 171t-174.5 490z" />
<glyph unicode="V" horiz-adv-x="1787" d="M78 1434h352l465 -1084l459 1084h356l-643 -1434h-348z" />
<glyph unicode="W" horiz-adv-x="2449" d="M76 1434h323l322 -1000l315 1000h367l311 -1000l326 1000h323l-471 -1434h-368l-305 985l-306 -985h-368z" />
<glyph unicode="X" horiz-adv-x="1646" d="M82 0l541 735l-510 699h376l330 -461l336 461h379l-514 -699l543 -735h-381l-363 494l-360 -494h-377z" />
<glyph unicode="Y" horiz-adv-x="1574" d="M78 1434h346l362 -623l365 623h348l-543 -936v-498h-340v498z" />
<glyph unicode="Z" horiz-adv-x="1531" d="M117 0v156l790 1003h-778v275h1260v-156l-791 -1004h805v-274h-1286z" />
<glyph unicode="[" horiz-adv-x="714" d="M166 -256v1792h434v-250h-119v-1292h119v-250h-434z" />
<glyph unicode="\" horiz-adv-x="870" d="M-31 1485h314l616 -1690h-315z" />
<glyph unicode="]" horiz-adv-x="714" d="M115 -6h118v1292h-118v250h434v-1792h-434v250z" />
<glyph unicode="^" horiz-adv-x="1011" d="M59 1116l449 332l448 -332l-149 -155l-299 213l-297 -213z" />
<glyph unicode="_" horiz-adv-x="1153" d="M4 -43h1145v-250h-1145v250z" />
<glyph unicode="`" horiz-adv-x="645" d="M92 1341l189 195l299 -299l-115 -117z" />
<glyph unicode="a" horiz-adv-x="1132" d="M68 303q0 153 133 248.5t346 95.5q87 0 158 -8v18q0 66 -46 102t-120 36q-177 0 -281 -64l-152 158q175 155 414 155q222 0 361 -103.5t139 -268.5v-672h-315v119q-118 -131 -293 -131q-154 0 -249 87t-95 228zM383 330q0 -43 38 -72t95 -29q83 0 136 64t53 158 q-56 16 -111 16q-92 0 -151.5 -39.5t-59.5 -97.5z" />
<glyph unicode="b" horiz-adv-x="1212" d="M125 59v1426h315v-580q53 60 134.5 95.5t177.5 35.5q173 0 283 -146t110 -378q0 -236 -172 -384t-447 -148q-235 0 -401 79zM440 246q60 -17 146 -17q109 0 176 78t67 199q0 123 -57 201.5t-147 78.5q-73 0 -127 -29t-58 -55v-456z" />
<glyph unicode="c" horiz-adv-x="1044" d="M68 512q0 236 150.5 384t391.5 148q239 0 394 -149l-166 -172q-72 72 -205 72q-112 0 -181 -79t-69 -204t69 -204t181 -79q133 0 205 72l166 -172q-149 -149 -396 -149q-241 0 -390.5 147.5t-149.5 384.5z" />
<glyph unicode="d" horiz-adv-x="1222" d="M68 492q0 243 139.5 393.5t365.5 150.5q112 0 209 -37v486h316v-1485h-316v152q-55 -75 -136 -119.5t-179 -44.5q-177 0 -288 140.5t-111 363.5zM383 492q0 -113 59 -183.5t154 -70.5q78 0 132 57.5t54 116.5v360q-77 14 -174 14q-101 0 -163 -81.5t-62 -212.5z" />
<glyph unicode="e" horiz-adv-x="1155" d="M66 512q0 236 141.5 383t370.5 147q224 0 362.5 -147.5t138.5 -384.5v-102h-698q23 -83 95.5 -132t174.5 -49q147 0 223 76q27 -29 84 -87t84 -87q-153 -147 -411 -147q-251 0 -408 146.5t-157 383.5zM387 616h375q0 80 -51 129.5t-129 49.5q-71 0 -124.5 -49t-70.5 -130 z" />
<glyph unicode="f" horiz-adv-x="1011" d="M49 774v250h154v14q0 209 122 338t320 129q204 0 326 -131l-160 -166q-61 47 -139 47q-67 0 -110.5 -49.5t-43.5 -128.5v-53h301v-250h-301v-774h-315v774h-154z" />
<glyph unicode="g" horiz-adv-x="1212" d="M68 492q0 246 170.5 399t445.5 153q114 0 209.5 -17t193.5 -64v-963q0 -214 -154.5 -347.5t-402.5 -133.5q-250 0 -405 149l160 164q86 -63 245 -63q107 0 174.5 64.5t67.5 166.5v119q-118 -131 -311 -131q-173 0 -283 140.5t-110 363.5zM383 492q0 -110 58.5 -182 t150.5 -72q74 0 127 32t53 60v448q-60 17 -135 17q-114 0 -184 -84.5t-70 -218.5z" />
<glyph unicode="h" horiz-adv-x="1259" d="M125 0v1485h315v-629q56 88 141 138t189 50q161 0 263 -115.5t102 -299.5v-629h-316v580q0 95 -51 155t-131 60q-82 0 -138 -67t-59 -142v-586h-315z" />
<glyph unicode="i" d="M125 0v1024h315v-1024h-315zM125 1190v244h315v-244h-315z" />
<glyph unicode="j" horiz-adv-x="647" d="M-160 -367l160 164q36 -28 100 -28q46 0 76.5 40t30.5 103v1112h315v-1100q0 -181 -109 -293t-284 -112q-178 0 -289 114zM207 1190v244h315v-244h-315z" />
<glyph unicode="k" horiz-adv-x="1275" d="M125 0v1485h315v-799l305 338h371l-377 -416l445 -608h-350l-293 397l-101 -118v-279h-315z" />
<glyph unicode="l" horiz-adv-x="796" d="M125 367v1118h315v-1145q0 -47 26 -79t66 -32q44 0 74 27l162 -166q-104 -110 -272 -110q-164 0 -267.5 107.5t-103.5 279.5z" />
<glyph unicode="m" horiz-adv-x="1781" d="M125 0v1024h315v-129q108 149 295 149q80 0 145 -39.5t107 -109.5q58 71 141 110t183 39q155 0 251.5 -112t96.5 -289v-643h-318v643q0 67 -33 109.5t-87 42.5q-74 0 -122.5 -59.5t-49.5 -153.5v-582h-316v643q0 66 -34.5 109t-88.5 43q-73 0 -120.5 -59.5t-49.5 -153.5 v-582h-315z" />
<glyph unicode="n" horiz-adv-x="1259" d="M125 0v1024h315v-168q56 88 141 138t189 50q161 0 263 -115.5t102 -299.5v-629h-316v580q0 94 -51.5 154.5t-130.5 60.5q-82 0 -138 -67t-59 -142v-586h-315z" />
<glyph unicode="o" horiz-adv-x="1224" d="M68 512q0 237 150.5 384.5t393.5 147.5t395 -148t152 -384t-152 -384t-395 -148t-393.5 147.5t-150.5 384.5zM383 512q0 -123 65 -203t164 -80q102 0 166 79.5t64 203.5t-64 203.5t-166 79.5q-99 0 -164 -80t-65 -203z" />
<glyph unicode="p" horiz-adv-x="1222" d="M123 -461v1485h317v-156q53 77 133.5 121.5t178.5 44.5q177 0 288 -145t111 -377q0 -233 -139 -377.5t-365 -144.5q-117 0 -207 33v-484h-317zM440 254q94 -18 172 -18q99 0 161.5 77t62.5 199q0 121 -59 197.5t-154 76.5q-74 0 -128.5 -56.5t-54.5 -111.5v-364z" />
<glyph unicode="q" horiz-adv-x="1212" d="M68 492q0 246 170.5 399t445.5 153q114 0 209.5 -17t193.5 -64v-1424h-315v580q-118 -131 -311 -131q-173 0 -283 140.5t-110 363.5zM383 492q0 -110 58.5 -182t150.5 -72q74 0 127 32t53 60v444q-60 21 -135 21q-115 0 -184.5 -84t-69.5 -219z" />
<glyph unicode="r" horiz-adv-x="862" d="M125 0v1024h315v-225q49 111 134 178t192 67v-270q-134 0 -227.5 -76.5t-98.5 -160.5v-537h-315z" />
<glyph unicode="s" horiz-adv-x="952" d="M72 129l157 164q77 -64 215 -64q48 0 86.5 23t38.5 55q0 28 -26 48.5t-67.5 34t-92 28t-100.5 37t-91.5 54t-67.5 85.5t-26 125q0 95 54.5 171.5t142.5 116.5t190 40q219 0 369 -150l-158 -164q-42 32 -85.5 47t-108.5 15q-38 0 -62 -19t-24 -45q0 -34 26 -58.5t67 -40.5 t91 -31.5t100.5 -37t91.5 -51t67 -79.5t26 -116q0 -97 -64 -175.5t-163 -120t-209 -41.5q-215 0 -377 149z" />
<glyph unicode="t" horiz-adv-x="1036" d="M49 774v250h154v236h315v-236h289v-250h-289v-350q0 -86 46.5 -140.5t117.5 -54.5q66 0 127 50l162 -168q-122 -131 -326 -131q-198 0 -320 127t-122 331v336h-154z" />
<glyph unicode="u" horiz-adv-x="1259" d="M125 383v641h315v-588q0 -91 51.5 -149t131.5 -58q82 0 139 70t57 143v582h316v-1024h-316v166q-56 -86 -141 -136t-189 -50q-161 0 -262.5 112t-101.5 291z" />
<glyph unicode="v" horiz-adv-x="1329" d="M78 1024h301l278 -686l277 686h307l-424 -1024h-317z" />
<glyph unicode="w" horiz-adv-x="1871" d="M76 1024h299l217 -614l205 614h278l199 -614l223 614h299l-364 -1024h-293l-203 575l-205 -575h-295z" />
<glyph unicode="x" horiz-adv-x="1333" d="M84 0l399 524l-379 500h355l205 -289l208 289h357l-381 -500l401 -524h-356l-229 311l-226 -311h-354z" />
<glyph unicode="y" horiz-adv-x="1318" d="M47 -362l154 157q35 -26 127 -26q46 0 80 42t67 119l31 68l-428 1026h299l278 -664l283 664h303l-508 -1192q-137 -313 -381 -313q-189 0 -305 119z" />
<glyph unicode="z" horiz-adv-x="1157" d="M119 0v145l479 629h-469v250h899v-145l-504 -629h514v-250h-919z" />
<glyph unicode="{" horiz-adv-x="868" d="M115 510v250q48 0 80.5 26.5t49 71.5t27.5 103t22.5 122.5t27 129t47.5 122.5t78.5 103t124.5 71.5t182 26.5v-250q-52 0 -84 -29.5t-46.5 -78t-23.5 -109t-21.5 -126t-33 -124.5t-66.5 -109t-114 -75q68 -25 113.5 -74.5t66 -107.5t33 -122.5t21 -124t23 -107.5 t47 -76.5t85.5 -28.5v-250q-104 0 -182 26t-124.5 70.5t-78.5 102t-47.5 121t-27 127t-22.5 121t-27.5 102t-49 70.5t-80.5 26z" />
<glyph unicode="|" d="M125 -205v1690h315v-1690h-315z" />
<glyph unicode="}" horiz-adv-x="868" d="M115 -6q52 0 84.5 28.5t47 76.5t23 107.5t21 124t32.5 122.5t65.5 107.5t113.5 74.5q-68 25 -113.5 75t-66 109t-33 124.5t-21 126t-23 109t-46.5 78t-84 29.5v250q103 0 181 -26.5t124.5 -71.5t78 -103t47.5 -122.5t27 -129t22.5 -122.5t28 -103t49 -71.5t81.5 -26.5 v-250q-48 0 -80.5 -26t-49 -70.5t-28 -102t-22.5 -121t-27 -127t-48 -121t-78 -102t-124.5 -70.5t-181.5 -26v250z" />
<glyph unicode="~" horiz-adv-x="1064" d="M78 612q151 164 303 164q59 0 160 -26.5t147 -26.5q80 0 143 55l156 -160q-145 -163 -297 -163q-57 0 -156.5 26.5t-146.5 26.5q-86 0 -154 -55z" />
<glyph unicode="&#xa1;" d="M125 -268v968h315v-968h-315zM125 854v322h315v-322h-315z" />
<glyph unicode="&#xa2;" horiz-adv-x="1044" d="M68 717q0 210 121 352.5t323 171.5v193h190v-191q172 -26 302 -143l-166 -172q-46 46 -136 65v-553q89 19 136 66l166 -172q-120 -117 -302 -144v-190h-190v190q-202 31 -323 173.5t-121 353.5zM383 717q0 -180 129 -260v518q-62 -38 -95.5 -105t-33.5 -153z" />
<glyph unicode="&#xa3;" horiz-adv-x="1277" d="M109 0v262h98v283h-98v250h98v241q0 126 67 222.5t178.5 146t247.5 49.5q156 0 264.5 -47.5t215.5 -146.5l-172 -177q-62 59 -122 84t-157 25q-98 0 -146 -52t-48 -139v-206h493v-250h-493v-283h645v-262h-1071z" />
<glyph unicode="&#xa4;" horiz-adv-x="1134" d="M53 393l164 166q-29 71 -29 158q0 86 29 157l-164 166l189 195l168 -170q65 22 157 22q88 0 158 -20l168 168l188 -197l-163 -164q30 -70 30 -157q0 -89 -30 -160l163 -162l-188 -196l-166 168q-73 -21 -160 -21t-157 21l-168 -168zM420 717q0 -79 42 -132t105 -53 q68 0 110 52t42 133q0 80 -42 132t-110 52q-63 0 -105 -52.5t-42 -131.5z" />
<glyph unicode="&#xa5;" horiz-adv-x="1574" d="M78 1434h346l362 -623l365 623h348l-543 -936v-33h322v-170h-322v-66h322v-170h-322v-59h-340v59h-317v170h317v66h-317v170h317v33z" />
<glyph unicode="&#xa6;" d="M125 -205v795h315v-795h-315zM125 690v795h315v-795h-315z" />
<glyph unicode="&#xa7;" horiz-adv-x="1175" d="M68 -274l170 174q113 -105 280 -105q93 0 155 43t62 111q0 47 -35 81.5t-91.5 58t-124.5 47t-135.5 57t-124 78t-91.5 119.5t-35 173q0 149 86 258q-86 99 -86 254q0 194 137.5 312t339.5 118q152 0 256.5 -50.5t208.5 -156.5l-163 -178q-61 59 -118 84t-149 25 q-88 0 -130 -37t-42 -100q0 -47 27.5 -84t72.5 -60.5t102.5 -47.5t117 -44.5t117 -53.5t102.5 -72t72.5 -102.5t27.5 -142.5q0 -147 -100 -268q100 -97 100 -244q0 -136 -77.5 -241t-201.5 -159t-270 -54q-138 0 -246 51.5t-214 155.5zM438 580q0 -40 18.5 -71.5t56 -56.5 t80.5 -43t105 -36q37 40 37 88q0 25 -9 46t-29.5 38.5t-41.5 31t-58.5 28t-66.5 24t-77 24.5q-15 -29 -15 -73z" />
<glyph unicode="&#xa8;" horiz-adv-x="1021" d="M125 1190v244h315v-244h-315zM582 1190v244h315v-244h-315z" />
<glyph unicode="&#xa9;" horiz-adv-x="1636" d="M68 717q0 216 93.5 383.5t264.5 260.5t391 93t392 -93t267 -260.5t95 -383.5t-95 -383.5t-267 -260.5t-392 -93t-391 93t-264.5 260.5t-93.5 383.5zM307 717q0 -234 144.5 -386.5t363.5 -152.5q225 0 367.5 151.5t142.5 387.5t-142.5 387t-367.5 151q-219 0 -363.5 -152 t-144.5 -386zM455 719q0 167 107.5 272t279.5 105q164 0 268 -101l-119 -121q-46 46 -133 46q-78 0 -127 -56.5t-49 -144.5t49 -143.5t127 -55.5q88 0 133 45l119 -123q-98 -98 -270 -98q-171 0 -278 104.5t-107 270.5z" />
<glyph unicode="&#xaa;" horiz-adv-x="761" d="M68 924q0 108 91.5 174.5t235.5 66.5q74 0 111 -2v2q0 109 -117 109q-115 0 -201 -43l-104 108q107 107 295 107q155 0 251.5 -78t96.5 -203v-448h-221v88q-72 -98 -205 -98q-104 0 -168.5 60t-64.5 157zM283 944q0 -29 28 -50.5t68 -21.5q57 0 92 44.5t35 111.5 q-25 14 -76 14q-64 0 -105.5 -27.5t-41.5 -70.5z" />
<glyph unicode="&#xab;" horiz-adv-x="1568" d="M121 563l479 484l188 -197l-288 -287l288 -287l-188 -196zM764 563l477 484l189 -197l-289 -287l289 -287l-189 -196z" />
<glyph unicode="&#xac;" horiz-adv-x="1273" d="M125 623v249h1024v-550h-315v301h-709z" />
<glyph unicode="&#xad;" horiz-adv-x="804" d="M125 469v250h555v-250h-555z" />
<glyph unicode="&#xae;" horiz-adv-x="905" d="M68 1075q0 168 106 273.5t277 105.5q172 0 279.5 -106t107.5 -273t-107.5 -273t-279.5 -106q-171 0 -277 105.5t-106 273.5zM184 1075q0 -123 75.5 -202.5t191.5 -79.5q117 0 190.5 79.5t73.5 202.5q0 124 -74 203.5t-190 79.5t-191.5 -80t-75.5 -203zM322 905v338h151 q47 0 77 -29t30 -75q0 -38 -21.5 -64.5t-58.5 -34.5l98 -135h-84l-94 133h-23v-133h-75zM397 1098h68q15 0 25 11.5t10 29.5q0 20 -10 31.5t-25 11.5h-68v-84z" />
<glyph unicode="&#xaf;" horiz-adv-x="1064" d="M125 1237v197h815v-197h-815z" />
<glyph unicode="&#xb0;" horiz-adv-x="858" d="M68 1137q0 160 100 259t262 99q160 0 260.5 -99.5t100.5 -258.5q0 -157 -100.5 -256t-260.5 -99q-162 0 -262 99t-100 256zM328 1137q0 -52 30 -87.5t72 -35.5q44 0 73 35t29 88q0 55 -29 91t-73 36q-42 0 -72 -36t-30 -91z" />
<glyph unicode="&#xb1;" horiz-adv-x="1153" d="M125 137v250h903v-250h-903zM125 807v248h317v329h267v-329h319v-248h-319v-330h-267v330h-317z" />
<glyph unicode="&#xb2;" horiz-adv-x="612" d="M74 1364q48 44 99.5 66t125.5 22q98 0 164.5 -53.5t66.5 -141.5q0 -60 -26 -120.5t-63.5 -104t-75 -78t-63.5 -52.5l-26 -17h267v-117h-451v117q12 8 31 21.5t68.5 55.5t87.5 82.5t69 95.5t31 101q0 44 -23.5 70t-70.5 26q-45 0 -74.5 -13t-60.5 -42z" />
<glyph unicode="&#xb3;" horiz-adv-x="628" d="M80 848l80 82q44 -56 141 -56q49 0 79 27t30 68t-27.5 67.5t-67.5 26.5h-57v111h59q33 0 54.5 21t21.5 52q0 34 -25.5 56t-66.5 22q-92 0 -131 -57l-80 86q82 88 223 88q101 0 164.5 -48t63.5 -124q0 -102 -107 -152q59 -22 92 -66t33 -102q0 -85 -69 -138.5t-177 -53.5 q-140 0 -233 90z" />
<glyph unicode="&#xb4;" horiz-adv-x="641" d="M90 1237l295 299l188 -195l-370 -221z" />
<glyph unicode="&#xb5;" horiz-adv-x="1259" d="M125 -461v1485h315v-588q0 -91 51.5 -149t131.5 -58q79 0 134 64.5t62 136.5v594h316v-1024h-316v150q-60 -79 -144 -124.5t-186 -45.5q-15 0 -57 -39v-402h-307z" />
<glyph unicode="&#xb6;" horiz-adv-x="1490" d="M84 1075q0 159 101.5 259t263.5 100h958v-275h-129v-1517h-315v1517h-199v-1517h-315v1075q-162 0 -263.5 99.5t-101.5 258.5z" />
<glyph unicode="&#xb7;" d="M125 455v319h315v-319h-315z" />
<glyph unicode="&#xb8;" horiz-adv-x="593" d="M94 -324q17 19 53 53.5t54 53.5q3 -3 17 -15t20.5 -16t19 -9t25.5 -5q24 0 41.5 12t17.5 25t-12.5 25.5t-31 26t-36.5 33t-30.5 56t-12.5 84.5h162q0 -43 12.5 -69t30.5 -38.5t35.5 -25.5t30 -41.5t12.5 -75.5q0 -75 -60.5 -119.5t-150.5 -44.5q-62 0 -107 22.5t-90 67.5 z" />
<glyph unicode="&#xb9;" horiz-adv-x="548" d="M78 1282l235 152h150v-666h-150v510l-174 -102z" />
<glyph unicode="&#xba;" horiz-adv-x="894" d="M68 1075q0 166 104.5 268.5t273.5 102.5t275 -103t106 -268t-106 -267.5t-275 -102.5t-273.5 102t-104.5 268zM285 1075q0 -86 46 -142t115 -56q73 0 117.5 55.5t44.5 142.5t-44.5 143t-117.5 56q-69 0 -115 -56.5t-46 -142.5z" />
<glyph unicode="&#xbb;" horiz-adv-x="1564" d="M137 276l289 287l-289 287l189 197l477 -484l-477 -483zM778 276l291 287l-291 287l189 197l479 -484l-479 -483z" />
<glyph unicode="&#xbf;" horiz-adv-x="1091" d="M78 106q0 80 19 140.5t49.5 97.5t67 66t73 55t67 55t49.5 74.5t19 105.5h315q0 -94 -19 -166t-49.5 -114t-67 -73.5t-73 -53.5t-67 -44t-49.5 -55t-19 -77q0 -55 58.5 -99.5t146.5 -44.5q92 0 152 29.5t122 91.5l160 -164q-101 -104 -208.5 -155t-260.5 -51 q-133 0 -242 44t-176 132.5t-67 205.5zM422 854v322h315v-322h-315z" />
<glyph unicode="&#xc0;" horiz-adv-x="1787" d="M78 0l643 1434h348l641 -1434h-326l-135 289h-708l-131 -289h-332zM649 1751l189 195l299 -299l-115 -117zM662 563h471l-240 520z" />
<glyph unicode="&#xc1;" horiz-adv-x="1787" d="M78 0l643 1434h348l641 -1434h-326l-135 289h-708l-131 -289h-332zM651 1647l295 299l189 -195l-371 -221zM662 563h471l-240 520z" />
<glyph unicode="&#xc2;" horiz-adv-x="1787" d="M78 0l643 1434h348l641 -1434h-326l-135 289h-708l-131 -289h-332zM539 1698l354 248l354 -248l-151 -156l-203 148l-203 -148zM662 563h471l-240 520z" />
<glyph unicode="&#xc3;" horiz-adv-x="1787" d="M78 0l643 1434h348l641 -1434h-326l-135 289h-708l-131 -289h-332zM455 1745q149 164 303 164q59 0 159.5 -27t145.5 -27q81 0 145 56l121 -121q-149 -164 -297 -164q-57 0 -158 26.5t-147 26.5q-86 0 -156 -55q-20 20 -58 60t-58 61zM662 563h471l-240 520z" />
<glyph unicode="&#xc4;" horiz-adv-x="1787" d="M78 0l643 1434h348l641 -1434h-326l-135 289h-708l-131 -289h-332zM506 1599v244h315v-244h-315zM662 563h471l-240 520zM963 1599v244h315v-244h-315z" />
<glyph unicode="&#xc5;" horiz-adv-x="1787" d="M78 0l643 1434h348l641 -1434h-326l-135 289h-708l-131 -289h-332zM662 563h471l-240 520zM725 1780q0 75 47 122.5t121 47.5t121 -47.5t47 -122.5q0 -76 -47 -124t-121 -48t-121 48t-47 124zM827 1780q0 -29 17.5 -46.5t46.5 -17.5t46 17.5t17 46.5q0 28 -17 44.5 t-46 16.5t-46.5 -16.5t-17.5 -44.5z" />
<glyph unicode="&#xc6;" horiz-adv-x="1996" d="M78 0l643 1434h1122v-275h-604v-297h539v-276h-539v-312h627v-274h-967v289h-358l-131 -289h-332zM662 563h237v533z" />
<glyph unicode="&#xc7;" horiz-adv-x="1435" d="M68 717q0 215 94.5 383t265 261t389.5 93q326 0 549 -207l-197 -203q-52 64 -139.5 99t-193.5 35q-191 0 -309.5 -129.5t-118.5 -335.5q0 -202 118.5 -329.5t309.5 -127.5q106 0 193 35t140 98l197 -203q-195 -192 -506 -204q3 -36 16.5 -58t30.5 -33.5t34 -25t28.5 -42 t11.5 -73.5q0 -75 -60.5 -119.5t-150.5 -44.5q-62 0 -107 22.5t-90 67.5q18 18 54 53t53 54q3 -3 17 -15t20.5 -16t19 -9t25.5 -5q24 0 41.5 12t17.5 25q0 14 -12 26t-29.5 25t-35.5 31t-31 52t-15 79q-286 35 -458 233.5t-172 495.5z" />
<glyph unicode="&#xc8;" horiz-adv-x="1318" d="M125 0v1434h1046v-275h-706v-297h641v-276h-641v-312h729v-274h-1069zM410 1751l188 195l299 -299l-115 -117z" />
<glyph unicode="&#xc9;" horiz-adv-x="1318" d="M125 0v1434h1046v-275h-706v-297h641v-276h-641v-312h729v-274h-1069zM414 1647l295 299l188 -195l-371 -221z" />
<glyph unicode="&#xca;" horiz-adv-x="1318" d="M125 0v1434h1046v-275h-706v-297h641v-276h-641v-312h729v-274h-1069zM299 1698l354 248l355 -248l-152 -156l-203 148l-202 -148z" />
<glyph unicode="&#xcb;" horiz-adv-x="1318" d="M125 0v1434h1046v-275h-706v-297h641v-276h-641v-312h729v-274h-1069zM268 1599v244h316v-244h-316zM725 1599v244h315v-244h-315z" />
<glyph unicode="&#xcc;" horiz-adv-x="589" d="M53 1751l189 195l299 -299l-115 -117zM125 0v1434h340v-1434h-340z" />
<glyph unicode="&#xcd;" horiz-adv-x="589" d="M55 1647l295 299l189 -195l-371 -221zM125 0v1434h340v-1434h-340z" />
<glyph unicode="&#xce;" horiz-adv-x="589" d="M-59 1698l354 248l354 -248l-151 -156l-203 148l-203 -148zM125 0v1434h340v-1434h-340z" />
<glyph unicode="&#xcf;" horiz-adv-x="589" d="M-88 1599v244h315v-244h-315zM125 0v1434h340v-1434h-340zM369 1599v244h315v-244h-315z" />
<glyph unicode="&#xd0;" horiz-adv-x="1757" d="M125 586v276h205v572h626q216 0 383 -89.5t259 -252.5t92 -375t-92 -375t-259 -252.5t-383 -89.5h-626v586h-205zM670 274h286q172 0 283 125.5t111 317.5t-111 317t-283 125h-286v-297h358v-276h-358v-312z" />
<glyph unicode="&#xd1;" horiz-adv-x="1581" d="M125 0v1434h340l651 -899v899h340v-1434h-340l-651 899v-899h-340zM352 1745q149 164 303 164q59 0 160 -27t146 -27q81 0 145 56l121 -121q-149 -164 -297 -164q-57 0 -158 26.5t-147 26.5q-86 0 -156 -55q-19 21 -58 61t-59 60z" />
<glyph unicode="&#xd2;" horiz-adv-x="1636" d="M68 717q0 216 93.5 383.5t264.5 260.5t391 93t392 -93t267 -260.5t95 -383.5t-95 -383.5t-267 -260.5t-392 -93t-391 93t-264.5 260.5t-93.5 383.5zM408 717q0 -199 117 -330t292 -131q182 0 297 130t115 331t-115 331t-297 130q-175 0 -292 -131t-117 -330zM573 1751 l189 195l299 -299l-115 -117z" />
<glyph unicode="&#xd3;" horiz-adv-x="1636" d="M68 717q0 216 93.5 383.5t264.5 260.5t391 93t392 -93t267 -260.5t95 -383.5t-95 -383.5t-267 -260.5t-392 -93t-391 93t-264.5 260.5t-93.5 383.5zM408 717q0 -199 117 -330t292 -131q182 0 297 130t115 331t-115 331t-297 130q-175 0 -292 -131t-117 -330zM575 1647 l295 299l189 -195l-371 -221z" />
<glyph unicode="&#xd4;" horiz-adv-x="1636" d="M68 717q0 216 93.5 383.5t264.5 260.5t391 93t392 -93t267 -260.5t95 -383.5t-95 -383.5t-267 -260.5t-392 -93t-391 93t-264.5 260.5t-93.5 383.5zM408 717q0 -199 117 -330t292 -131q182 0 297 130t115 331t-115 331t-297 130q-175 0 -292 -131t-117 -330zM461 1698 l354 248l354 -248l-151 -156l-203 148l-203 -148z" />
<glyph unicode="&#xd5;" horiz-adv-x="1636" d="M68 717q0 216 93.5 383.5t264.5 260.5t391 93t392 -93t267 -260.5t95 -383.5t-95 -383.5t-267 -260.5t-392 -93t-391 93t-264.5 260.5t-93.5 383.5zM379 1745q149 164 303 164q59 0 159.5 -27t145.5 -27q82 0 146 56q20 -21 120 -121q-149 -164 -297 -164 q-57 0 -158 26.5t-147 26.5q-85 0 -155 -55q-19 21 -58 61t-59 60zM408 717q0 -199 117 -330t292 -131q182 0 297 130t115 331t-115 331t-297 130q-175 0 -292 -131t-117 -330z" />
<glyph unicode="&#xd6;" horiz-adv-x="1636" d="M68 717q0 216 93.5 383.5t264.5 260.5t391 93t392 -93t267 -260.5t95 -383.5t-95 -383.5t-267 -260.5t-392 -93t-391 93t-264.5 260.5t-93.5 383.5zM408 717q0 -199 117 -330t292 -131q182 0 297 130t115 331t-115 331t-297 130q-175 0 -292 -131t-117 -330zM432 1599 v244h316v-244h-316zM889 1599v244h315v-244h-315z" />
<glyph unicode="&#xd7;" horiz-adv-x="1153" d="M123 475l264 262l-264 262l188 195l264 -262l265 262l188 -197l-264 -260l264 -260l-188 -196l-265 262l-264 -262z" />
<glyph unicode="&#xd8;" horiz-adv-x="1636" d="M68 717q0 216 93.5 383.5t264.5 260.5t391 93q127 0 248 -31l68 113h315l-139 -242q125 -100 193.5 -249t68.5 -328q0 -216 -95 -383.5t-267 -260.5t-392 -93q-131 0 -248 30l-65 -112h-316l138 243q-124 99 -191 246t-67 330zM408 717q0 -163 79 -293l439 743 q-48 11 -109 11q-175 0 -292 -131t-117 -330zM711 264q47 -8 106 -8q182 0 297 130t115 331q0 168 -78 293z" />
<glyph unicode="&#xd9;" horiz-adv-x="1570" d="M125 641v793h340v-793q0 -173 89 -279t230 -106q147 0 234.5 105t87.5 280v793h340v-793q0 -318 -177.5 -489.5t-484.5 -171.5q-310 0 -484.5 171t-174.5 490zM541 1751l188 195l299 -299l-115 -117z" />
<glyph unicode="&#xda;" horiz-adv-x="1570" d="M125 641v793h340v-793q0 -173 89 -279t230 -106q147 0 234.5 105t87.5 280v793h340v-793q0 -318 -177.5 -489.5t-484.5 -171.5q-310 0 -484.5 171t-174.5 490zM543 1647l295 299l188 -195l-371 -221z" />
<glyph unicode="&#xdb;" horiz-adv-x="1570" d="M125 641v793h340v-793q0 -173 89 -279t230 -106q147 0 234.5 105t87.5 280v793h340v-793q0 -318 -177.5 -489.5t-484.5 -171.5q-310 0 -484.5 171t-174.5 490zM428 1698l354 248l355 -248l-152 -156l-203 148l-202 -148z" />
<glyph unicode="&#xdc;" horiz-adv-x="1570" d="M125 641v793h340v-793q0 -173 89 -279t230 -106q147 0 234.5 105t87.5 280v793h340v-793q0 -318 -177.5 -489.5t-484.5 -171.5q-310 0 -484.5 171t-174.5 490zM399 1599v244h316v-244h-316zM856 1599v244h315v-244h-315z" />
<glyph unicode="&#xdd;" horiz-adv-x="1574" d="M78 1434h346l362 -623l365 623h348l-543 -936v-498h-340v498zM545 1647l295 299l188 -195l-371 -221z" />
<glyph unicode="&#xde;" horiz-adv-x="1302" d="M125 0v1434h340v-217h278q220 0 357 -135.5t137 -350.5t-137 -349t-357 -134h-278v-248h-340zM465 522h242q84 0 136 58.5t52 150.5q0 93 -52 152t-136 59h-242v-420z" />
<glyph unicode="&#xdf;" horiz-adv-x="1413" d="M125 0v1038q0 209 126.5 338t330.5 129q206 0 341.5 -120t135.5 -291q0 -57 -16.5 -98t-39.5 -65.5t-46 -47.5t-39.5 -56t-16.5 -77q0 -39 24.5 -67.5t63.5 -46.5t86 -34.5t94 -38.5t86 -51t63.5 -79t24.5 -116q0 -97 -61.5 -175.5t-158 -120t-203.5 -41.5 q-210 0 -365 149l158 164q74 -64 200 -64q44 0 79.5 23t35.5 55q0 28 -24.5 49.5t-63.5 37t-86.5 32.5t-95 42.5t-86.5 59.5t-63.5 91t-24.5 131q0 62 24.5 119.5t54 93t54 74.5t24.5 67q0 71 -42 111t-105 40q-67 0 -110.5 -49.5t-43.5 -128.5v-1077h-315z" />
<glyph unicode="&#xe0;" horiz-adv-x="1122" d="M55 303q0 152 133.5 248t346.5 96q77 0 157 -6v16q0 66 -46 102t-120 36q-176 0 -280 -64l-152 158q175 155 412 155q224 0 363 -103.5t139 -268.5v-672h-316v119q-118 -131 -293 -131q-154 0 -249 87t-95 228zM295 1341l188 195l299 -299l-112 -117zM371 330 q0 -43 38 -72t95 -29q83 0 135.5 64t52.5 158q-56 16 -110 16q-92 0 -151.5 -39.5t-59.5 -97.5z" />
<glyph unicode="&#xe1;" horiz-adv-x="1122" d="M55 303q0 152 133.5 248t346.5 96q77 0 157 -6v16q0 66 -46 102t-120 36q-176 0 -280 -64l-152 158q175 155 414 155q222 0 361 -103.5t139 -268.5v-672h-316v119q-118 -131 -293 -131q-154 0 -249 87t-95 228zM299 1237l295 299l188 -195l-370 -221zM371 330 q0 -43 38 -72t95 -29q83 0 135.5 64t52.5 158q-56 16 -110 16q-92 0 -151.5 -39.5t-59.5 -97.5z" />
<glyph unicode="&#xe2;" horiz-adv-x="1122" d="M55 303q0 152 133.5 248t346.5 96q77 0 157 -6v16q0 66 -46 102t-120 36q-176 0 -280 -64l-152 158q175 155 414 155q222 0 361 -103.5t139 -268.5v-672h-316v119q-118 -131 -293 -131q-154 0 -249 87t-95 228zM184 1288l355 248l354 -248l-152 -155l-202 147l-203 -147z M371 330q0 -43 38 -72t95 -29q83 0 135.5 64t52.5 158q-56 16 -110 16q-92 0 -151.5 -39.5t-59.5 -97.5z" />
<glyph unicode="&#xe3;" horiz-adv-x="1122" d="M55 303q0 152 133.5 248t346.5 96q77 0 157 -6v16q0 66 -46 102t-120 36q-176 0 -280 -64l-152 158q175 155 414 155q222 0 361 -103.5t139 -268.5v-672h-316v119q-118 -131 -293 -131q-154 0 -249 87t-95 228zM109 1335q149 164 303 164q59 0 159.5 -26.5t145.5 -26.5 q82 0 145 55l121 -121q-148 -163 -297 -163q-57 0 -158 26.5t-147 26.5q-84 0 -156 -56q-20 20 -58 60t-58 61zM371 330q0 -43 38 -72t95 -29q83 0 135.5 64t52.5 158q-56 16 -110 16q-92 0 -151.5 -39.5t-59.5 -97.5z" />
<glyph unicode="&#xe4;" horiz-adv-x="1122" d="M55 303q0 152 133.5 248t346.5 96q77 0 157 -6v16q0 66 -46 102t-120 36q-176 0 -280 -64l-152 158q175 155 414 155q222 0 361 -103.5t139 -268.5v-672h-316v119q-118 -131 -293 -131q-154 0 -249 87t-95 228zM154 1190v244h315v-244h-315zM371 330q0 -43 38 -72t95 -29 q83 0 135.5 64t52.5 158q-56 16 -110 16q-92 0 -151.5 -39.5t-59.5 -97.5zM610 1190v244h316v-244h-316z" />
<glyph unicode="&#xe5;" horiz-adv-x="1122" d="M55 303q0 152 133.5 248t346.5 96q77 0 157 -6v16q0 66 -46 102t-120 36q-176 0 -280 -64l-152 158q175 155 414 155q222 0 361 -103.5t139 -268.5v-672h-316v119q-118 -131 -293 -131q-154 0 -249 87t-95 228zM371 330q0 -43 38 -72t95 -29q83 0 135.5 64t52.5 158 q-56 16 -110 16q-92 0 -151.5 -39.5t-59.5 -97.5zM371 1370q0 75 47 122.5t121 47.5t121 -47.5t47 -122.5q0 -76 -47 -124t-121 -48t-121 48t-47 124zM473 1370q0 -29 17.5 -46t46.5 -17t46 17t17 46q0 28 -17 45t-46 17t-46.5 -17t-17.5 -45z" />
<glyph unicode="&#xe6;" horiz-adv-x="1775" d="M66 301q0 152 131.5 246t339.5 94q43 0 153 4q0 77 -40.5 117.5t-110.5 40.5q-86 0 -148.5 -17.5t-140.5 -54.5q-25 26 -75.5 78.5t-76.5 77.5q155 155 412 155q224 0 362 -81q141 81 330 81q224 0 363 -147.5t139 -384.5v-102h-698q23 -83 95.5 -132t174.5 -49 q147 0 223 76q28 -29 84.5 -87t83.5 -87q-153 -147 -412 -147q-246 0 -401 108q-137 -100 -401 -100q-173 0 -280 85.5t-107 225.5zM381 330q0 -43 37.5 -73t91.5 -30q81 0 130.5 62t49.5 151q-47 23 -104 23q-90 0 -147.5 -38.5t-57.5 -94.5zM1012 616h374q0 80 -51 129.5 t-129 49.5q-71 0 -124 -48.5t-70 -130.5z" />
<glyph unicode="&#xe7;" horiz-adv-x="1044" d="M68 512q0 236 150.5 384t391.5 148q239 0 394 -149l-166 -172q-72 72 -205 72q-112 0 -181 -79t-69 -204t69 -204t181 -79q133 0 205 72l166 -172q-138 -138 -363 -147q3 -36 16.5 -58t30.5 -33.5t34 -25t28.5 -42t11.5 -73.5q0 -75 -60.5 -119.5t-150.5 -44.5 q-62 0 -107 22.5t-90 67.5q18 18 54 53t53 54q3 -3 17 -15t20.5 -16t19 -9t25.5 -5q24 0 41.5 12t17.5 25t-12.5 25.5t-30 26t-35.5 32t-31 53t-14 80.5q-188 37 -299.5 177t-111.5 343z" />
<glyph unicode="&#xe8;" horiz-adv-x="1155" d="M66 512q0 236 141.5 383t370.5 147q224 0 362.5 -147.5t138.5 -384.5v-102h-698q23 -83 95.5 -132t174.5 -49q147 0 223 76q27 -29 84 -87t84 -87q-153 -147 -411 -147q-251 0 -408 146.5t-157 383.5zM332 1341l188 195l299 -299l-114 -117zM387 616h375q0 80 -51 129.5 t-129 49.5q-71 0 -124.5 -49t-70.5 -130z" />
<glyph unicode="&#xe9;" horiz-adv-x="1155" d="M66 512q0 236 141.5 383t370.5 147q224 0 362.5 -147.5t138.5 -384.5v-102h-698q23 -83 95.5 -132t174.5 -49q147 0 223 76q27 -29 84 -87t84 -87q-153 -147 -411 -147q-251 0 -408 146.5t-157 383.5zM336 1237l295 299l188 -195l-370 -221zM387 616h375q0 80 -51 129.5 t-129 49.5q-71 0 -124.5 -49t-70.5 -130z" />
<glyph unicode="&#xea;" horiz-adv-x="1155" d="M66 512q0 236 141.5 383t370.5 147q224 0 362.5 -147.5t138.5 -384.5v-102h-698q23 -83 95.5 -132t174.5 -49q147 0 223 76q27 -29 84 -87t84 -87q-153 -147 -411 -147q-251 0 -408 146.5t-157 383.5zM221 1288l354 248l355 -248l-152 -155l-203 147l-202 -147zM387 616 h375q0 80 -51 129.5t-129 49.5q-71 0 -124.5 -49t-70.5 -130z" />
<glyph unicode="&#xeb;" horiz-adv-x="1155" d="M66 512q0 236 141.5 383t370.5 147q224 0 362.5 -147.5t138.5 -384.5v-102h-698q23 -83 95.5 -132t174.5 -49q147 0 223 76q27 -29 84 -87t84 -87q-153 -147 -411 -147q-251 0 -408 146.5t-157 383.5zM190 1190v244h316v-244h-316zM387 616h375q0 80 -51 129.5t-129 49.5 q-71 0 -124.5 -49t-70.5 -130zM647 1190v244h316v-244h-316z" />
<glyph unicode="&#xec;" d="M39 1341l188 195l299 -299l-114 -117zM125 0v1024h315v-1024h-315z" />
<glyph unicode="&#xed;" d="M43 1237l295 299l188 -195l-370 -221zM125 0v1024h315v-1024h-315z" />
<glyph unicode="&#xee;" d="M-72 1288l355 248l354 -248l-152 -155l-202 147l-203 -147zM125 0v1024h315v-1024h-315z" />
<glyph unicode="&#xef;" d="M-100 1190v244h315v-244h-315zM125 0v1024h315v-1024h-315zM356 1190v244h316v-244h-316z" />
<glyph unicode="&#xf0;" horiz-adv-x="1239" d="M119 512q0 232 113 378t296 146q104 0 188.5 -45.5t141.5 -122.5q0 157 -121 275l-35 -47h-213l105 147q-76 35 -167.5 57t-144.5 26l-53 5l168 174q18 0 48.5 -1.5t117.5 -18.5t164 -47l35 47h213l-94 -135q290 -206 290 -633v-205q0 -236 -145 -384t-375 -148 q-237 0 -384.5 147.5t-147.5 384.5zM434 506q0 -120 60 -198.5t153 -78.5q90 -2 149.5 77t59.5 200q0 123 -59 201.5t-150 78.5q-94 0 -153.5 -78.5t-59.5 -201.5z" />
<glyph unicode="&#xf1;" horiz-adv-x="1259" d="M125 0v1024h315v-168q56 88 141 138t189 50q161 0 263 -115.5t102 -299.5v-629h-316v580q0 94 -51.5 154.5t-130.5 60.5q-82 0 -138 -67t-59 -142v-586h-315zM190 1335q149 164 304 164q59 0 159.5 -26.5t145.5 -26.5q82 0 145 55l121 -121q-148 -163 -297 -163 q-57 0 -158 26.5t-147 26.5q-84 0 -156 -56q-19 21 -58 61t-59 60z" />
<glyph unicode="&#xf2;" horiz-adv-x="1224" d="M68 512q0 237 150.5 384.5t393.5 147.5t395 -148t152 -384t-152 -384t-395 -148t-393.5 147.5t-150.5 384.5zM369 1341l188 195l299 -299l-115 -117zM383 512q0 -123 65 -203t164 -80q102 0 166 79.5t64 203.5t-64 203.5t-166 79.5q-99 0 -164 -80t-65 -203z" />
<glyph unicode="&#xf3;" horiz-adv-x="1224" d="M68 512q0 237 150.5 384.5t393.5 147.5t395 -148t152 -384t-152 -384t-395 -148t-393.5 147.5t-150.5 384.5zM369 1237l295 299l188 -195l-371 -221zM383 512q0 -123 65 -203t164 -80q102 0 166 79.5t64 203.5t-64 203.5t-166 79.5q-99 0 -164 -80t-65 -203z" />
<glyph unicode="&#xf4;" horiz-adv-x="1224" d="M68 512q0 237 150.5 384.5t393.5 147.5t395 -148t152 -384t-152 -384t-395 -148t-393.5 147.5t-150.5 384.5zM256 1288l354 248l355 -248l-152 -155l-203 147l-202 -147zM383 512q0 -123 65 -203t164 -80q102 0 166 79.5t64 203.5t-64 203.5t-166 79.5q-99 0 -164 -80 t-65 -203z" />
<glyph unicode="&#xf5;" horiz-adv-x="1224" d="M68 512q0 237 150.5 384.5t393.5 147.5t395 -148t152 -384t-152 -384t-395 -148t-393.5 147.5t-150.5 384.5zM172 1335q149 164 303 164q59 0 159.5 -26.5t145.5 -26.5q83 0 146 55l121 -121q-148 -163 -297 -163q-57 0 -158.5 26.5t-147.5 26.5q-83 0 -155 -56 q-20 21 -59 61t-58 60zM383 512q0 -123 65 -203t164 -80q102 0 166 79.5t64 203.5t-64 203.5t-166 79.5q-99 0 -164 -80t-65 -203z" />
<glyph unicode="&#xf6;" horiz-adv-x="1224" d="M68 512q0 237 150.5 384.5t393.5 147.5t395 -148t152 -384t-152 -384t-395 -148t-393.5 147.5t-150.5 384.5zM225 1190v244h316v-244h-316zM383 512q0 -123 65 -203t164 -80q102 0 166 79.5t64 203.5t-64 203.5t-166 79.5q-99 0 -164 -80t-65 -203zM682 1190v244h315 v-244h-315z" />
<glyph unicode="&#xf7;" horiz-adv-x="1153" d="M125 612v250h903v-250h-903zM418 238v280h315v-280h-315zM418 956v281h315v-281h-315z" />
<glyph unicode="&#xf8;" horiz-adv-x="1224" d="M68 512q0 237 150.5 384.5t393.5 147.5q82 0 164 -16l58 98h266l-119 -208q84 -70 131 -175t47 -231q0 -236 -152 -384t-395 -148q-85 0 -163 16l-58 -98h-266l119 206q-176 150 -176 408zM383 512q0 -81 12 -135l250 418h-33q-99 0 -164 -80t-65 -203zM578 227 q6 0 17.5 1t16.5 1q102 0 166 79.5t64 203.5q0 59 -13 135z" />
<glyph unicode="&#xf9;" horiz-adv-x="1259" d="M125 383v641h315v-588q0 -91 51.5 -149t131.5 -58q82 0 139 70t57 143v582h316v-1024h-316v166q-56 -86 -141 -136t-189 -50q-161 0 -262.5 112t-101.5 291zM385 1341l188 195l299 -299l-114 -117z" />
<glyph unicode="&#xfa;" horiz-adv-x="1259" d="M125 383v641h315v-588q0 -91 51.5 -149t131.5 -58q82 0 139 70t57 143v582h316v-1024h-316v166q-56 -86 -141 -136t-189 -50q-161 0 -262.5 112t-101.5 291zM387 1237l295 299l188 -195l-370 -221z" />
<glyph unicode="&#xfb;" horiz-adv-x="1259" d="M125 383v641h315v-588q0 -91 51.5 -149t131.5 -58q82 0 139 70t57 143v582h316v-1024h-316v166q-56 -86 -141 -136t-189 -50q-161 0 -262.5 112t-101.5 291zM274 1288l355 248l354 -248l-152 -155l-202 147l-203 -147z" />
<glyph unicode="&#xfc;" horiz-adv-x="1259" d="M125 383v641h315v-588q0 -91 51.5 -149t131.5 -58t136.5 66.5t59.5 138.5v590h316v-1024h-316v166q-56 -86 -141 -136t-189 -50q-161 0 -262.5 112t-101.5 291zM242 1190v244h315v-244h-315zM698 1190v244h316v-244h-316z" />
<glyph unicode="&#xfd;" horiz-adv-x="1318" d="M47 -362l154 157q35 -26 127 -26q46 0 80 42t67 119l31 68l-428 1026h299l278 -664l283 664h303l-508 -1192q-137 -313 -381 -313q-189 0 -305 119zM416 1237l295 299l188 -195l-371 -221z" />
<glyph unicode="&#xfe;" horiz-adv-x="1222" d="M123 -461v1946h317v-617q53 77 133.5 121.5t178.5 44.5q177 0 288 -145t111 -377q0 -233 -139 -377.5t-365 -144.5q-117 0 -207 33v-484h-317zM440 254q94 -18 172 -18q99 0 161.5 77t62.5 199q0 121 -59 197.5t-154 76.5q-74 0 -128.5 -56.5t-54.5 -111.5v-364z" />
<glyph unicode="&#xff;" horiz-adv-x="1318" d="M47 -362l154 157q35 -26 127 -26q46 0 80 42t67 119l31 68l-428 1026h299l278 -664l283 664h303l-508 -1192q-137 -313 -381 -313q-189 0 -305 119zM272 1190v244h316v-244h-316zM729 1190v244h315v-244h-315z" />
<glyph unicode="&#x152;" horiz-adv-x="2424" d="M66 717q0 216 94 383t265 259.5t392 92.5q233 0 424 -59v41h1034v-277h-706v-297h639v-274h-639v-312h729v-274h-1057v37q-188 -55 -424 -55q-221 0 -391.5 92t-265 259t-94.5 384zM408 717q0 -200 116 -331.5t293 -131.5q182 0 297 131t115 332q0 200 -115 330.5 t-297 130.5q-177 0 -293 -131.5t-116 -329.5z" />
<glyph unicode="&#x153;" horiz-adv-x="1921" d="M66 512q0 237 151 383.5t395 146.5q226 0 383 -106q142 106 359 106q222 0 360.5 -147.5t138.5 -384.5v-102h-696q23 -83 95.5 -132t174.5 -49q149 0 222 76q27 -29 85 -87t85 -87q-153 -147 -412 -147q-246 0 -406 112q-157 -112 -389 -112q-245 0 -395.5 146 t-150.5 384zM381 512q0 -123 65.5 -204t165.5 -81t165 78.5t65 206.5q0 122 -64.5 202.5t-165.5 80.5q-100 0 -165.5 -80.5t-65.5 -202.5zM1163 616h375q0 80 -51 129.5t-129 49.5q-71 0 -124.5 -49t-70.5 -130z" />
<glyph unicode="&#x178;" horiz-adv-x="1574" d="M78 1434h346l362 -623l365 623h348l-543 -936v-498h-340v498zM401 1599v244h316v-244h-316zM858 1599v244h316v-244h-316z" />
<glyph unicode="&#x2c6;" horiz-adv-x="835" d="M59 1288l355 248l354 -248l-152 -155l-202 147l-203 -147z" />
<glyph unicode="&#x2dc;" horiz-adv-x="1064" d="M102 1335q149 164 304 164q59 0 159.5 -26.5t145.5 -26.5q82 0 145 55l121 -121q-148 -163 -297 -163q-57 0 -158 26.5t-147 26.5q-84 0 -156 -56q-19 21 -58 61t-59 60z" />
<glyph unicode="&#x2000;" horiz-adv-x="975" />
<glyph unicode="&#x2001;" horiz-adv-x="1950" />
<glyph unicode="&#x2002;" horiz-adv-x="975" />
<glyph unicode="&#x2003;" horiz-adv-x="1950" />
<glyph unicode="&#x2004;" horiz-adv-x="650" />
<glyph unicode="&#x2005;" horiz-adv-x="487" />
<glyph unicode="&#x2006;" horiz-adv-x="325" />
<glyph unicode="&#x2007;" horiz-adv-x="325" />
<glyph unicode="&#x2008;" horiz-adv-x="243" />
<glyph unicode="&#x2009;" horiz-adv-x="390" />
<glyph unicode="&#x200a;" horiz-adv-x="108" />
<glyph unicode="&#x2010;" horiz-adv-x="804" d="M125 469v250h555v-250h-555z" />
<glyph unicode="&#x2011;" horiz-adv-x="804" d="M125 469v250h555v-250h-555z" />
<glyph unicode="&#x2012;" horiz-adv-x="804" d="M125 469v250h555v-250h-555z" />
<glyph unicode="&#x2013;" horiz-adv-x="1273" d="M125 469v250h1024v-250h-1024z" />
<glyph unicode="&#x2014;" horiz-adv-x="2058" d="M125 469v250h1808v-250h-1808z" />
<glyph unicode="&#x2018;" horiz-adv-x="706" d="M125 758q0 60 8 116.5t26.5 109t36 94.5t50.5 90.5t54.5 79t63.5 77t62.5 68t65.5 67.5l124 -129q-176 -176 -176 -573h-315z" />
<glyph unicode="&#x2019;" horiz-adv-x="706" d="M90 856q176 179 176 571h316q0 -68 -12.5 -134t-29.5 -117.5t-50 -108.5t-58.5 -95t-71 -90t-72 -79.5t-75.5 -77.5z" />
<glyph unicode="&#x201a;" d="M-51 -252q176 179 176 571h315q0 -79 -14 -152t-44.5 -139t-59.5 -116t-79.5 -110t-82 -93.5t-88.5 -91.5z" />
<glyph unicode="&#x201c;" horiz-adv-x="1273" d="M125 758q0 60 8 116.5t26.5 109t36 94.5t50.5 90.5t54.5 79t63.5 77t62.5 68t65.5 67.5l124 -129q-176 -176 -176 -573h-315zM692 758q0 54 8 106t18 94.5t32.5 90t38.5 79.5t49 77t51 68.5t58 67t56 60t58 59.5l123 -129q-174 -177 -174 -573h-318z" />
<glyph unicode="&#x201d;" horiz-adv-x="1273" d="M90 856q176 179 176 571h316q0 -68 -12.5 -134t-29.5 -117.5t-50 -108.5t-58.5 -95t-71 -90t-72 -79.5t-75.5 -77.5zM657 856q177 177 177 571h315q0 -68 -12.5 -134t-29.5 -117.5t-50 -109t-58 -94.5t-71 -90t-71 -79.5t-75 -77.5z" />
<glyph unicode="&#x201e;" horiz-adv-x="1132" d="M-51 -252q176 179 176 571h315q0 -79 -14 -152t-44.5 -139t-59.5 -116t-79.5 -110t-82 -93.5t-88.5 -91.5zM518 -252q174 177 174 571h318q0 -68 -12.5 -134t-29.5 -117t-51 -109.5t-58 -94.5t-71.5 -90t-71.5 -79t-75 -78z" />
<glyph unicode="&#x2022;" horiz-adv-x="641" d="M68 659q0 112 72 186.5t186 74.5q110 0 176.5 -74t66.5 -187q0 -109 -66 -179t-177 -70q-114 0 -186 70.5t-72 178.5z" />
<glyph unicode="&#x2026;" horiz-adv-x="1660" d="M125 0v319h315v-319h-315zM672 0v319h317v-319h-317zM1221 0v319h315v-319h-315z" />
<glyph unicode="&#x202f;" horiz-adv-x="390" />
<glyph unicode="&#x2039;" horiz-adv-x="923" d="M121 563l479 484l188 -197l-288 -287l288 -287l-188 -196z" />
<glyph unicode="&#x203a;" horiz-adv-x="923" d="M137 276l289 287l-289 287l189 197l477 -484l-477 -483z" />
<glyph unicode="&#x205f;" horiz-adv-x="487" />
<glyph unicode="&#x20ac;" horiz-adv-x="1615" d="M102 412v227h148q0 13 -1 35t-1 37q0 13 1 40t1 42h-148v227h197q84 201 268.5 316.5t431.5 115.5q327 0 547 -207l-196 -203q-51 64 -139.5 100t-194.5 36q-219 0 -352 -158h462v-227h-532q-6 -44 -6 -80q0 -33 6 -74h532v-227h-462q61 -75 151.5 -116.5t200.5 -41.5 q106 0 194.5 35.5t139.5 99.5l196 -203q-201 -204 -551 -204q-249 0 -432.5 114.5t-263.5 315.5h-197z" />
<glyph unicode="&#x2122;" horiz-adv-x="1912" d="M102 1262v172h701v-172h-242v-545h-219v545h-240zM889 717v717h252l211 -371l211 371h252v-717h-220v397l-186 -397h-113l-190 397v-397h-217z" />
<glyph unicode="&#xe000;" horiz-adv-x="1024" d="M0 0v1024h1024v-1024h-1024z" />
</font>
</defs>
</svg>
