<?xml version="1.0" standalone="no"?>
<!DOCTYPE svg PUBLIC "-//W3C//DTD SVG 1.1//EN" "http://www.w3.org/Graphics/SVG/1.1/DTD/svg11.dtd" >
<svg xmlns="http://www.w3.org/2000/svg">
<metadata></metadata>
<defs>
<font id="cytia_proregular" horiz-adv-x="487" >
<font-face units-per-em="2048" ascent="1536" descent="-512" />
<missing-glyph horiz-adv-x="522" />
<glyph horiz-adv-x="2048" />
<glyph horiz-adv-x="2048" />
<glyph unicode="&#xd;" horiz-adv-x="2048" />
<glyph unicode=" "  horiz-adv-x="522" />
<glyph unicode="&#x09;" horiz-adv-x="522" />
<glyph unicode="&#xa0;" horiz-adv-x="522" />
<glyph unicode="!" d="M164 0v229h160v-229h-160zM164 436v998h160v-998h-160z" />
<glyph unicode="&#x22;" horiz-adv-x="876" d="M164 1434h160l-23 -545h-115zM553 1434h160l-23 -545h-115z" />
<glyph unicode="#" horiz-adv-x="1646" d="M119 330v131h252l92 512h-227v129h247l60 332h170l-60 -332h475l60 332h170l-60 -332h232v-129h-254l-90 -512h227v-131h-250l-57 -330h-170l57 330h-475l-57 -330h-170l57 330h-229zM541 461h475l92 512h-477z" />
<glyph unicode="$" horiz-adv-x="1171" d="M98 197l88 90q136 -152 359 -158v526q-45 16 -68 24.5t-65 26t-65.5 30t-58 33.5t-54 40t-43 46.5t-35.5 56t-20.5 65t-8.5 76.5q0 169 116.5 276t301.5 115v194h71v-196q238 -17 406 -205l-86 -92q-131 147 -320 158v-519l33 -12q43 -16 65.5 -24t62.5 -24.5t62 -28 t55 -31t51.5 -37t40.5 -42.5t33.5 -50.5t19.5 -58t8 -68.5q0 -174 -121.5 -287t-309.5 -127v-199h-71v195q-262 6 -447 207zM295 1061q0 -47 19 -85t56.5 -67.5t77.5 -50.5t97 -43v483q-115 -7 -182.5 -73t-67.5 -164zM616 137q117 14 190 84.5t73 175.5q0 44 -20 79 t-60.5 63t-81 47t-101.5 41v-490z" />
<glyph unicode="%" horiz-adv-x="1898" d="M109 1151q0 152 94 246t246 94q151 0 244 -94t93 -246q0 -151 -93 -244.5t-244 -93.5q-152 0 -246 93.5t-94 244.5zM244 1151q0 -95 57 -156t148 -61q90 0 147 60.5t57 156.5q0 97 -56.5 158t-147.5 61t-148 -61t-57 -158zM438 0l856 1485h170l-856 -1485h-170zM1112 332 q0 152 94.5 246t245.5 94t244.5 -94t93.5 -246q0 -151 -93.5 -244.5t-244.5 -93.5t-245.5 93.5t-94.5 244.5zM1247 332q0 -95 57 -156t148 -61t148 61t57 156q0 97 -57 158t-148 61t-148 -61t-57 -158z" />
<glyph unicode="&#x26;" horiz-adv-x="1445" d="M133 395q0 72 22 132.5t63.5 107t87.5 81t108 68.5q-99 183 -99 326q0 149 97.5 241.5t253.5 92.5q147 0 240 -85t93 -224q0 -34 -7.5 -66.5t-18 -58.5t-32 -53t-38 -46t-48.5 -43t-52 -38t-59 -36t-59 -32.5t-62 -32.5q131 -188 385 -407q118 158 118 395h138 q0 -292 -146 -486q52 -41 102 -77.5t74 -53.5l25 -16l-98 -102q-84 55 -201 149q-174 -141 -438 -141q-197 0 -323 113.5t-126 291.5zM291 395q0 -121 81.5 -198.5t209.5 -77.5q191 0 327 102q-264 230 -415 438q-98 -58 -150.5 -119t-52.5 -145zM473 1110q0 -123 74 -258 q51 26 77 39.5t67.5 37.5t63 43.5t44.5 45.5t33 55t10 62q0 80 -49 130t-127 50q-85 0 -139 -57t-54 -148z" />
<glyph unicode="'" d="M164 1434h160l-23 -545h-115z" />
<glyph unicode="(" horiz-adv-x="604" d="M150 639q0 272 62 521t171 409l86 -90q-76 -132 -119 -359t-43 -481q0 -250 43.5 -477.5t118.5 -360.5l-86 -90q-109 160 -171 408.5t-62 519.5z" />
<glyph unicode=")" horiz-adv-x="604" d="M133 1479l88 90q110 -160 172 -409t62 -519q0 -272 -62 -521t-172 -409l-86 90q76 132 119 359t43 481q0 251 -44 478.5t-120 359.5z" />
<glyph unicode="*" horiz-adv-x="1044" d="M125 885l293 168l-293 170l51 92l295 -170v340h104v-340l293 170l54 -92l-297 -170l297 -168l-54 -92l-293 168v-338h-104v338l-295 -168z" />
<glyph unicode="+" horiz-adv-x="1189" d="M143 672v131h383v387h138v-387h383v-131h-383v-385h-138v385h-383z" />
<glyph unicode="," d="M33 -266q64 63 97.5 198t33.5 297h160q0 -169 -63.5 -320.5t-158.5 -246.5z" />
<glyph unicode="-" horiz-adv-x="813" d="M164 528v131h483v-131h-483z" />
<glyph unicode="." d="M164 0v229h160v-229h-160z" />
<glyph unicode="/" horiz-adv-x="735" d="M-18 -205l614 1690h160l-617 -1690h-157z" />
<glyph unicode="0" horiz-adv-x="1327" d="M109 717q0 214 67 378.5t192 256.5t291 92q250 0 401.5 -201t151.5 -526t-151.5 -526t-401.5 -201q-166 0 -291 92t-192 256.5t-67 378.5zM272 715q0 -171 48 -305.5t136.5 -209.5t202.5 -75q177 0 283.5 164t106.5 426q0 265 -106.5 429.5t-283.5 164.5 q-173 0 -280 -165.5t-107 -428.5z" />
<glyph unicode="1" horiz-adv-x="972" d="M98 1143l494 291h164v-1434h-164v1255l-422 -237z" />
<glyph unicode="2" horiz-adv-x="1171" d="M123 1241q94 100 205 151.5t256 51.5q195 0 321.5 -114.5t126.5 -299.5q0 -70 -24 -145t-64 -143t-92.5 -136.5t-110 -127.5t-115 -112.5t-110 -95t-92.5 -72.5t-64 -47l-24 -16h721v-135h-926v135q15 11 41.5 29.5t103.5 78.5t146.5 120.5t154.5 146.5t146 166 t103 170.5t42 167.5q0 131 -80 213t-217 82q-215 0 -360 -158z" />
<glyph unicode="3" horiz-adv-x="1177" d="M104 190l93 95q63 -76 162.5 -118t218.5 -42q145 0 236 79.5t91 205.5q0 128 -95 208t-247 80h-82v129h86q130 0 211.5 67t81.5 173q0 108 -77 175t-201 67q-114 0 -209.5 -41.5t-157.5 -120.5l-90 94q181 203 465 203q193 0 313.5 -99.5t120.5 -257.5 q0 -115 -69.5 -199.5t-192.5 -123.5q142 -42 224.5 -140.5t82.5 -232.5q0 -178 -133.5 -289.5t-347.5 -111.5q-146 0 -270 52t-214 148z" />
<glyph unicode="4" horiz-adv-x="1404" d="M125 252v88l774 1094h186v-1053h179v-129h-179v-252h-161v252h-799zM330 381h594v821z" />
<glyph unicode="5" horiz-adv-x="1167" d="M86 193l86 88q153 -156 385 -156q150 0 237 80.5t87 210.5q0 140 -88 225.5t-230 85.5h-387v707h778v-136h-614v-436h235q209 0 339 -125.5t130 -326.5q0 -188 -133 -304t-338 -116q-290 0 -487 203z" />
<glyph unicode="6" horiz-adv-x="1226" d="M109 717q0 214 64.5 378.5t184.5 256.5t279 92q238 0 391 -150l-88 -90q-111 105 -301 105q-154 0 -255.5 -147t-111.5 -386q130 117 326 117q230 0 376 -126t146 -321q0 -203 -133 -329.5t-348 -126.5q-160 0 -280.5 92t-185 256.5t-64.5 378.5zM272 606 q15 -218 115 -349.5t250 -131.5q143 0 232 89.5t89 231.5q0 135 -102.5 223.5t-263.5 88.5q-101 0 -187 -40.5t-133 -111.5z" />
<glyph unicode="7" horiz-adv-x="1312" d="M139 1298v136h1030v-91l-677 -1343h-168l653 1298h-838z" />
<glyph unicode="8" horiz-adv-x="1224" d="M109 391q0 134 82.5 232.5t224.5 140.5q-121 39 -190.5 124.5t-69.5 198.5q0 159 126 258t330 99t331.5 -99.5t127.5 -257.5q0 -115 -69.5 -199.5t-192.5 -123.5q142 -42 224.5 -140.5t82.5 -232.5q0 -178 -140 -289.5t-364 -111.5t-363.5 111t-139.5 290zM272 412 q0 -126 94.5 -206.5t243.5 -80.5q151 0 246.5 80.5t95.5 206.5q0 129 -95.5 209.5t-246.5 80.5q-150 0 -244 -80.5t-94 -209.5zM319 1063q0 -106 82.5 -174t212.5 -68t211.5 68t81.5 174q0 110 -81 178t-212 68t-213 -68t-82 -178z" />
<glyph unicode="9" horiz-adv-x="1222" d="M106 979q0 207 133.5 336t346.5 129q159 0 279 -92t184.5 -256.5t64.5 -378.5t-68 -378.5t-194.5 -256.5t-294.5 -92q-125 0 -230.5 39t-179.5 110l89 90q113 -104 323 -104q164 0 272 143t121 379q-131 -131 -331 -131q-228 0 -371.5 129.5t-143.5 333.5zM270 979 q0 -145 99 -236.5t258 -91.5q106 0 192.5 46.5t130.5 127.5q-19 226 -116 355t-244 129q-143 0 -231.5 -91t-88.5 -239z" />
<glyph unicode=":" d="M164 0v229h160v-229h-160zM164 795v229h160v-229h-160z" />
<glyph unicode=";" d="M33 -266q64 63 97.5 198t33.5 297h160q0 -169 -63.5 -320.5t-158.5 -246.5zM164 795v229h160v-229h-160z" />
<glyph unicode="&#x3c;" horiz-adv-x="1312" d="M113 664v110l1085 488v-160l-856 -381l856 -383v-162z" />
<glyph unicode="=" horiz-adv-x="1353" d="M164 406v131h1024v-131h-1024zM164 918v129h1024v-129h-1024z" />
<glyph unicode="&#x3e;" horiz-adv-x="1312" d="M115 174v160l856 381l-856 383v162l1083 -488v-110z" />
<glyph unicode="?" horiz-adv-x="1064" d="M88 1237q93 103 198 155t246 52q190 0 307 -100t117 -263q0 -77 -19.5 -135.5t-51 -94t-69.5 -65.5t-76 -59t-69.5 -64.5t-51 -92.5t-19.5 -132h-158q0 93 19.5 163.5t51 112.5t69.5 75t76.5 59t70 54.5t51 72t19.5 102.5q0 101 -75.5 169.5t-205.5 68.5 q-111 0 -192 -41.5t-154 -122.5zM442 0v229h158v-229h-158z" />
<glyph unicode="@" horiz-adv-x="2193" d="M121 512q0 216 71.5 399t199 311.5t309 200.5t395.5 72q286 0 508.5 -117t345.5 -328.5t123 -482.5q0 -150 -37 -265t-98.5 -180.5t-132 -97.5t-146.5 -32q-113 0 -195 69t-82 181q-50 -118 -150 -184t-231 -66q-180 0 -292.5 138.5t-112.5 361.5q0 241 155.5 391.5 t403.5 150.5q221 0 369 -71v-623q0 -100 47.5 -158.5t114.5 -58.5q41 0 80.5 26t72.5 77.5t53.5 140t20.5 200.5q0 232 -102.5 414t-289 283.5t-425.5 101.5q-237 0 -423 -108t-290 -303t-104 -443t104 -443t290 -303t423 -108q200 0 367 55t276 156l82 -84 q-278 -256 -725 -256q-214 0 -395.5 72t-309 200.5t-199 311.5t-71.5 399zM756 492q0 -165 85 -267t220 -102q131 0 216.5 86.5t88.5 214.5v442q-103 39 -244 39q-161 0 -263.5 -115t-102.5 -298z" />
<glyph unicode="A" horiz-adv-x="1714" d="M104 0l668 1434h172l666 -1434h-166l-184 393h-803l-185 -393h-168zM518 535h680l-340 718z" />
<glyph unicode="B" horiz-adv-x="1269" d="M164 0v1434h536q162 0 264.5 -100t102.5 -257q0 -109 -49.5 -193t-134.5 -126q118 -33 190 -132t72 -237q0 -172 -110 -280.5t-287 -108.5h-584zM334 141h360q124 0 200.5 75t76.5 194q0 118 -76.5 193t-200.5 75h-360v-537zM334 817h317q109 0 177.5 67t68.5 171 q0 105 -68 171t-178 66h-317v-475z" />
<glyph unicode="C" horiz-adv-x="1488" d="M109 717q0 160 53.5 295.5t148.5 230.5t230.5 148t294.5 53q323 0 530 -207l-100 -102q-73 80 -183 125t-241 45q-250 0 -408 -164t-158 -424t158 -424t408 -164q132 0 242 44t182 126l100 -102q-207 -207 -532 -207q-159 0 -294 53.5t-230 148.5t-148 230.5t-53 294.5z " />
<glyph unicode="D" horiz-adv-x="1519" d="M164 0v1434h536q208 0 370.5 -90.5t252.5 -254t90 -372.5t-90 -372.5t-252.5 -254t-370.5 -90.5h-536zM334 141h366q239 0 391 161t152 415q0 253 -152 414t-391 161h-366v-1151z" />
<glyph unicode="E" horiz-adv-x="1284" d="M164 0v1434h975v-142h-805v-489h747v-141h-747v-521h821v-141h-991z" />
<glyph unicode="F" horiz-adv-x="1269" d="M164 0v1434h975v-142h-805v-520h743v-141h-743v-631h-170z" />
<glyph unicode="G" horiz-adv-x="1529" d="M109 717q0 159 53.5 294.5t148.5 230.5t230.5 148.5t294.5 53.5q323 0 530 -207l-100 -102q-73 80 -183 125t-241 45q-250 0 -408 -164.5t-158 -425.5q0 -258 158 -422t408 -164q216 0 356 113v389h-395v141h563v-575q-207 -207 -532 -207q-159 0 -294 53t-230 148 t-148 230.5t-53 295.5z" />
<glyph unicode="H" horiz-adv-x="1536" d="M164 0v1434h170v-631h868v631h168v-1434h-168v662h-868v-662h-170z" />
<glyph unicode="I" horiz-adv-x="497" d="M164 0v1434h170v-1434h-170z" />
<glyph unicode="J" horiz-adv-x="1187" d="M109 139l98 101q48 -53 120 -82t158 -29q163 0 266 107t103 276v922h170v-922q0 -232 -146.5 -377t-381.5 -145q-238 0 -387 149z" />
<glyph unicode="K" horiz-adv-x="1384" d="M164 0v1434h170v-699l694 699h211l-612 -621l669 -813h-194l-586 696l-182 -192v-504h-170z" />
<glyph unicode="L" horiz-adv-x="1314" d="M164 0v1434h170v-1293h852v-141h-1022z" />
<glyph unicode="M" horiz-adv-x="1923" d="M164 0v1434h223l574 -1201l575 1201h221v-1434h-168v1178l-563 -1178h-129l-563 1178v-1178h-170z" />
<glyph unicode="N" horiz-adv-x="1560" d="M164 0v1434h170l893 -1170v1170h170v-1434h-170l-893 1169v-1169h-170z" />
<glyph unicode="O" horiz-adv-x="1660" d="M109 717q0 159 53 294.5t147 230.5t228 148.5t292 53.5q212 0 376.5 -91.5t255.5 -257t91 -378.5t-91 -378.5t-255.5 -257t-376.5 -91.5q-158 0 -292 53.5t-228 148.5t-147 230.5t-53 294.5zM276 717q0 -258 155 -423t398 -165q163 0 289.5 75t196 209t69.5 304 t-69.5 304t-196 209t-289.5 75q-243 0 -398 -165t-155 -423z" />
<glyph unicode="P" horiz-adv-x="1222" d="M164 0v1434h508q195 0 318.5 -125t123.5 -324q0 -198 -123.5 -322t-318.5 -124h-338v-539h-170zM334 680h319q130 0 211.5 85.5t81.5 219.5q0 135 -81.5 221t-211.5 86h-319v-612z" />
<glyph unicode="Q" horiz-adv-x="1716" d="M109 717q0 159 53 294.5t147 230.5t228 148.5t292 53.5q212 0 376.5 -91.5t255.5 -257t91 -378.5q0 -287 -161 -481l157 -154l-100 -102l-160 157q-189 -147 -459 -147q-158 0 -292 53.5t-228 148.5t-147 230.5t-53 294.5zM276 717q0 -258 155 -423t398 -165 q212 0 353 119l-250 248l98 102l244 -240q110 148 110 359q0 170 -69.5 304t-196 209t-289.5 75q-243 0 -398 -165t-155 -423z" />
<glyph unicode="R" horiz-adv-x="1265" d="M164 0v1434h551q181 0 294 -114.5t113 -297.5q0 -182 -111.5 -296.5t-289.5 -115.5l459 -610h-189l-459 610h-198v-610h-170zM334 752h362q113 0 185.5 76t72.5 194q0 119 -72.5 194.5t-185.5 75.5h-362v-540z" />
<glyph unicode="S" horiz-adv-x="1171" d="M98 197l88 90q145 -158 369 -158q142 0 233 75t91 193q0 50 -25.5 89.5t-69 67t-100 51t-119 45t-125 45.5t-119 56t-100 72t-69 99t-25.5 131q0 176 123.5 283.5t316.5 107.5q267 0 455 -207l-86 -92q-141 160 -354 160q-131 0 -209 -68t-78 -176q0 -68 41.5 -120 t108 -84.5t146.5 -61.5t160 -61t146.5 -71.5t108 -104.5t41.5 -150q0 -187 -140 -302.5t-348 -115.5q-270 0 -461 207z" />
<glyph unicode="T" horiz-adv-x="1521" d="M119 1292v142h1284v-142h-557v-1292h-170v1292h-557z" />
<glyph unicode="U" horiz-adv-x="1583" d="M164 625v809h170v-809q0 -221 127 -358.5t330 -137.5q205 0 331.5 137t126.5 359v809h168v-809q0 -292 -171 -463.5t-455 -171.5t-455.5 171.5t-171.5 463.5z" />
<glyph unicode="V" horiz-adv-x="1714" d="M104 1434h177l575 -1256l576 1256h178l-668 -1434h-172z" />
<glyph unicode="W" horiz-adv-x="2437" d="M102 1434h164l430 -1211l430 1211h181l428 -1211l430 1211h164l-508 -1434h-181l-423 1210l-426 -1210h-181z" />
<glyph unicode="X" horiz-adv-x="1550" d="M94 0l580 731l-555 703h192l463 -584l465 584h191l-556 -703l582 -731h-192l-490 610l-489 -610h-191z" />
<glyph unicode="Y" horiz-adv-x="1521" d="M104 1434h177l479 -744l481 744h174l-571 -899v-535h-168v535z" />
<glyph unicode="Z" horiz-adv-x="1533" d="M150 0v90l1005 1202h-989v142h1225v-91l-1006 -1202h1018v-141h-1253z" />
<glyph unicode="[" horiz-adv-x="679" d="M205 -256v1792h321v-129h-161v-1534h161v-129h-321z" />
<glyph unicode="\" horiz-adv-x="735" d="M-18 1485h157l617 -1690h-160z" />
<glyph unicode="]" horiz-adv-x="679" d="M154 -127h163v1534h-163v129h321v-1792h-321v129z" />
<glyph unicode="^" horiz-adv-x="1042" d="M117 1184l415 315l416 -315l-80 -84l-336 252l-333 -252z" />
<glyph unicode="_" horiz-adv-x="1189" d="M2 -66h1186v-129h-1186v129z" />
<glyph unicode="`" horiz-adv-x="663" d="M137 1436l99 100l299 -299l-66 -68z" />
<glyph unicode="a" horiz-adv-x="1140" d="M109 283q0 147 133.5 238t349.5 91q125 0 231 -20v59q0 113 -74 183.5t-192 70.5q-199 0 -319 -92l-80 82q154 139 391 139q192 0 312 -105.5t120 -273.5v-655h-158v229q-51 -110 -147.5 -173.5t-222.5 -63.5q-152 0 -248 81t-96 210zM266 295q0 -79 68.5 -127.5 t173.5 -48.5q137 0 226 105.5t89 258.5q-93 29 -221 29q-149 0 -242.5 -60t-93.5 -157z" />
<glyph unicode="b" horiz-adv-x="1226" d="M164 59v1426h160v-692q51 110 152 174.5t233 64.5q182 0 295.5 -144t113.5 -376t-159 -377t-414 -145q-222 0 -381 69zM324 156q113 -37 258 -37q169 0 274 109t105 282q0 177 -88 284t-230 107q-136 0 -225 -85t-94 -212v-448z" />
<glyph unicode="c" horiz-adv-x="1103" d="M109 512q0 232 145 377t377 145q233 0 379 -149l-86 -88q-105 108 -285 108q-165 0 -269 -109.5t-104 -283.5t104 -283.5t269 -109.5q180 0 285 108l86 -88q-143 -149 -381 -149q-230 0 -375 145t-145 377z" />
<glyph unicode="d" horiz-adv-x="1236" d="M109 492q0 240 141 390t368 150q169 0 297 -78v531h158v-1485h-158v266q-52 -127 -154.5 -200.5t-236.5 -73.5q-185 0 -300 138.5t-115 361.5zM266 492q0 -166 90.5 -267.5t235.5 -101.5q138 0 229 106t94 260v342q-113 70 -282 70q-163 0 -265 -114t-102 -295z" />
<glyph unicode="e" horiz-adv-x="1185" d="M106 512q0 231 136 376.5t352 145.5q215 0 350 -145t135 -377v-45h-813q9 -156 114.5 -253t266.5 -97q184 0 291 110q59 -59 88 -90q-147 -147 -387 -147q-236 0 -384.5 145t-148.5 377zM268 580h652q-4 145 -95 235t-227 90q-135 0 -225.5 -89.5t-104.5 -235.5z" />
<glyph unicode="f" horiz-adv-x="948" d="M102 895v129h154v113q0 160 100.5 259t261.5 99q168 0 271 -109l-84 -83q-70 63 -172 63q-96 0 -157.5 -60t-61.5 -153v-129h387v-129h-387v-895h-158v895h-154z" />
<glyph unicode="g" horiz-adv-x="1226" d="M109 492q0 241 159 391.5t414 150.5q224 0 381 -71v-963q0 -209 -143 -340t-371 -131q-244 0 -399 149l83 86q119 -106 316 -106q158 0 257 95.5t99 246.5v229q-52 -109 -153 -173t-232 -64q-183 0 -297 138.5t-114 361.5zM266 492q0 -165 89.5 -267t232.5 -102 q136 0 225 86.5t92 214.5v442q-112 39 -254 39q-170 0 -277.5 -115t-107.5 -298z" />
<glyph unicode="h" horiz-adv-x="1253" d="M164 0v1485h160v-719q55 124 158.5 196t236.5 72q164 0 267.5 -108.5t103.5 -280.5v-645h-160v616q0 130 -77.5 209.5t-201.5 79.5q-95 0 -170.5 -54t-116 -145t-40.5 -200v-506h-160z" />
<glyph unicode="i" d="M164 0v1024h160v-1024h-160zM164 1241v193h160v-193h-160z" />
<glyph unicode="j" horiz-adv-x="569" d="M-186 -371l84 86q54 -57 155 -57q85 0 139 60t54 155v1151h160v-1145q0 -156 -96 -253t-247 -97q-152 0 -249 100zM246 1241v193h160v-193h-160z" />
<glyph unicode="k" horiz-adv-x="1138" d="M164 0v1485h160v-959l483 498h190l-436 -455l504 -569h-184l-420 465l-137 -148v-317h-160z" />
<glyph unicode="l" horiz-adv-x="667" d="M164 244v1241h160v-1252q0 -51 28.5 -82.5t73.5 -31.5q54 0 82 31l84 -87q-67 -73 -180 -73q-109 0 -178.5 70.5t-69.5 183.5z" />
<glyph unicode="m" horiz-adv-x="1806" d="M164 0v1024h160v-197q52 98 140 152.5t202 54.5q97 0 171 -54.5t111 -150.5q55 97 149 151t212 54q148 0 239.5 -106.5t91.5 -278.5v-649h-157v649q0 115 -61 185.5t-160 70.5q-121 0 -199.5 -88.5t-81.5 -228.5v-588h-158v649q0 115 -61 185.5t-160 70.5 q-120 0 -197.5 -88.5t-80.5 -228.5v-588h-160z" />
<glyph unicode="n" horiz-adv-x="1253" d="M164 0v1024h160v-258q55 124 158.5 196t236.5 72q164 0 267.5 -108.5t103.5 -280.5v-645h-160v616q0 131 -77 210t-202 79q-95 0 -170.5 -54t-116 -145t-40.5 -200v-506h-160z" />
<glyph unicode="o" horiz-adv-x="1261" d="M109 512q0 232 145 377t377 145t378 -145t146 -377t-146 -377t-378 -145t-377 145t-145 377zM266 512q0 -173 102 -283t263 -110q162 0 263 109.5t101 283.5t-101 283.5t-263 109.5q-161 0 -263 -110t-102 -283z" />
<glyph unicode="p" horiz-adv-x="1236" d="M164 -461v1485h158v-268q52 127 153.5 200.5t235.5 73.5q184 0 299.5 -144t115.5 -374q0 -231 -141 -374.5t-367 -143.5q-174 0 -296 74v-529h-158zM322 193q122 -72 282 -72q161 0 263 109t102 282q0 176 -90 282.5t-234 106.5q-140 0 -231.5 -110t-91.5 -269v-329z" />
<glyph unicode="q" horiz-adv-x="1226" d="M109 492q0 241 159 391.5t414 150.5q224 0 381 -71v-1424h-158v690q-52 -109 -153 -173t-232 -64q-183 0 -297 138.5t-114 361.5zM266 492q0 -166 89 -267.5t231 -101.5q138 0 227 86t92 215v440q-109 41 -254 41q-172 0 -278.5 -114.5t-106.5 -298.5z" />
<glyph unicode="r" horiz-adv-x="849" d="M164 0v1024h160v-293q52 139 156.5 221t240.5 82v-139q-168 0 -279.5 -114.5t-117.5 -280.5v-500h-160z" />
<glyph unicode="s" horiz-adv-x="927" d="M100 139l84 86q95 -106 265 -106q91 0 150.5 48.5t59.5 121.5q0 36 -23 65.5t-60.5 48t-86 38t-98.5 35.5t-98.5 41t-86 53.5t-60.5 74.5t-23 103q0 127 95 207.5t237 80.5q205 0 338 -149l-84 -86q-93 104 -246 104q-82 0 -132 -43t-50 -110q0 -43 29.5 -76.5t77 -55.5 t104.5 -42t114 -44t104.5 -53t77 -77t29.5 -109q0 -134 -106.5 -219.5t-261.5 -85.5q-210 0 -349 149z" />
<glyph unicode="t" horiz-adv-x="958" d="M102 895v129h154v236h158v-236h383v-129h-383v-539q0 -105 63 -171t160 -66q100 0 168 65l84 -86q-102 -108 -271 -108q-160 0 -261 102.5t-101 269.5v533h-154z" />
<glyph unicode="u" horiz-adv-x="1253" d="M164 399v625h160v-604q0 -135 77.5 -218t200.5 -83q139 0 231 110.5t97 272.5v522h160v-1024h-160v256q-57 -123 -160 -194.5t-235 -71.5q-165 0 -268 113t-103 296z" />
<glyph unicode="v" horiz-adv-x="1294" d="M104 1024h156l385 -852l385 852h158l-463 -1024h-160z" />
<glyph unicode="w" horiz-adv-x="1845" d="M106 1024h154l297 -813l293 813h145l291 -813l301 813h152l-375 -1024h-147l-293 803l-295 -803h-150z" />
<glyph unicode="x" horiz-adv-x="1210" d="M88 0l422 524l-399 500h180l313 -393l314 393h182l-402 -500l422 -524h-182l-334 416l-334 -416h-182z" />
<glyph unicode="y" horiz-adv-x="1290" d="M86 -383l82 84q46 -43 139 -43q62 0 105 51t88 150l67 143l-463 1022h156l383 -842l387 842h158l-559 -1221q-59 -132 -133 -203t-179 -71q-146 0 -231 88z" />
<glyph unicode="z" horiz-adv-x="1181" d="M145 0v86l668 809h-657v129h872v-86l-680 -809h688v-129h-891z" />
<glyph unicode="{" horiz-adv-x="804" d="M154 569v131q49 0 80.5 46t47.5 120t29 163t34 178t53.5 163t96 120t154.5 46v-129q-50 0 -84.5 -39t-52.5 -102.5t-30.5 -141t-25.5 -158t-30.5 -149.5t-51.5 -119t-83 -63q49 -13 83 -62.5t51.5 -117.5t30.5 -147.5t25.5 -156t30.5 -139t52.5 -101t84.5 -38.5v-129 q-91 0 -154.5 45.5t-96 118.5t-53.5 160.5t-34 175.5t-29 161t-47.5 118.5t-80.5 45.5z" />
<glyph unicode="|" d="M164 -205v1690h160v-1690h-160z" />
<glyph unicode="}" horiz-adv-x="804" d="M154 -127q51 0 85.5 38.5t53 101t31 139t25.5 156t30.5 147.5t51.5 117.5t83 62.5q-49 13 -83 63t-51.5 119t-30.5 149.5t-25.5 158t-31 141t-53 102.5t-85.5 39v129q80 0 140 -36t92.5 -94.5t57 -134t35 -153.5t25 -153.5t28.5 -134t44 -94.5t73 -36v-131 q-43 0 -73 -35.5t-44 -93.5t-28.5 -132t-25 -151.5t-35 -151.5t-57 -132t-92.5 -93.5t-140 -35.5v129z" />
<glyph unicode="~" horiz-adv-x="966" d="M104 606q112 115 230 115q58 0 157 -37t146 -37q77 0 141 64l84 -86q-110 -115 -225 -115q-57 0 -155.5 37t-147.5 37q-79 0 -146 -64z" />
<glyph unicode="&#xa1;" d="M164 -262v1007h160v-1007h-160zM164 952v230h160v-230h-160z" />
<glyph unicode="&#xa2;" horiz-adv-x="1103" d="M109 717q0 215 125 356.5t331 161.5v199h105v-197q205 -12 340 -147l-86 -89q-95 98 -254 107v-782q164 9 254 106l86 -88q-132 -135 -340 -147v-197h-105v197q-206 22 -331 163.5t-125 356.5zM266 717q0 -152 81.5 -256t217.5 -127v764q-136 -23 -217.5 -126.5 t-81.5 -254.5z" />
<glyph unicode="&#xa3;" horiz-adv-x="1271" d="M129 0v135h113v486h-113v129h113v280q0 185 126 299.5t320 114.5q145 0 256 -51.5t205 -151.5l-88 -90q-145 158 -361 158q-136 0 -216.5 -82t-80.5 -213v-264h592v-129h-592v-486h744v-135h-1018z" />
<glyph unicode="&#xa4;" horiz-adv-x="1122" d="M94 348l160 160q-59 86 -59 209q0 124 59 207l-160 161l96 101l162 -164q89 61 209 61q121 0 207 -61l164 164l98 -99l-164 -163q62 -91 62 -207q0 -118 -62 -209l164 -162l-98 -98l-164 162q-89 -60 -207 -60q-117 0 -209 60l-162 -162zM317 717q0 -117 68 -189.5 t176 -72.5q109 0 176.5 72.5t67.5 189.5t-67.5 189.5t-176.5 72.5q-108 0 -176 -72.5t-68 -189.5z" />
<glyph unicode="&#xa5;" horiz-adv-x="1521" d="M104 1434h177l479 -744l481 744h174l-571 -899v-54h399v-96h-399v-139h399v-96h-399v-150h-168v150h-402v96h402v139h-402v96h402v54z" />
<glyph unicode="&#xa6;" d="M164 -205v778h160v-778h-160zM164 707v778h160v-778h-160z" />
<glyph unicode="&#xa7;" horiz-adv-x="1171" d="M98 -264l88 90q145 -158 369 -158q141 0 232.5 75.5t91.5 193.5q0 50 -25.5 89.5t-69 67t-100 51t-119 45t-125 45t-119 55.5t-100 72t-69 99t-25.5 131q0 166 111 268q-111 93 -111 244q0 176 123.5 283.5t316.5 107.5q267 0 455 -207l-86 -92q-141 160 -354 160 q-131 0 -209 -68t-78 -176q0 -68 41.5 -120t108 -84.5t146.5 -61.5t160 -61t146.5 -71.5t108 -104.5t41.5 -150q0 -170 -117 -281q117 -95 117 -231q0 -187 -140 -302.5t-348 -115.5q-270 0 -461 207zM295 600q0 -49 23 -90t58 -68t89.5 -53.5t103 -44t112.5 -42t107 -44.5 q91 74 91 191q0 55 -31 97t-88.5 72t-116 52t-138 50.5t-130.5 53.5q-80 -67 -80 -174z" />
<glyph unicode="&#xa8;" horiz-adv-x="958" d="M164 1241v193h160v-193h-160zM635 1241v193h158v-193h-158z" />
<glyph unicode="&#xa9;" horiz-adv-x="1660" d="M109 717q0 159 53 294.5t147 230.5t228 148.5t292 53.5q212 0 376.5 -91.5t255.5 -257t91 -378.5t-91 -378.5t-255.5 -257t-376.5 -91.5q-158 0 -292 53.5t-228 148.5t-147 230.5t-53 294.5zM236 717q0 -274 166 -447.5t427 -173.5q264 0 430 173.5t166 447.5t-166 447 t-430 173q-261 0 -427 -173t-166 -447zM453 719q0 172 108.5 280.5t280.5 108.5q185 0 307 -125l-68 -65q-86 92 -233 92q-123 0 -199 -81t-76 -210t76 -211t199 -82q146 0 233 90l68 -63q-119 -125 -309 -125q-172 0 -279.5 109t-107.5 282z" />
<glyph unicode="&#xaa;" horiz-adv-x="976" d="M109 918q0 101 92 164t239 63q74 0 156 -10v12q0 91 -57 145t-150 54q-117 0 -201 -66l-59 59q100 103 256 103q146 0 237 -82t91 -213v-430h-117v149q-35 -71 -100 -113t-152 -42q-104 0 -169.5 57.5t-65.5 149.5zM223 926q0 -53 46 -87t116 -34q91 0 151 70.5t60 171.5 q-57 22 -147 22q-99 0 -162.5 -39.5t-63.5 -103.5z" />
<glyph unicode="&#xab;" horiz-adv-x="1267" d="M139 563l416 418l96 -98l-319 -320l319 -319l-96 -99zM594 563l418 418l96 -98l-320 -320l320 -319l-96 -99z" />
<glyph unicode="&#xac;" horiz-adv-x="1353" d="M164 682v131h1024v-446h-158v315h-866z" />
<glyph unicode="&#xad;" horiz-adv-x="813" d="M164 528v131h483v-131h-483z" />
<glyph unicode="&#xae;" horiz-adv-x="952" d="M109 1075q0 164 101.5 266.5t264.5 102.5q164 0 266.5 -102.5t102.5 -266.5t-102.5 -266t-266.5 -102q-163 0 -264.5 102t-101.5 266zM182 1075q0 -135 82 -220t213 -85q129 0 210 85t81 220t-81 220t-210 85q-131 0 -213 -85t-82 -220zM342 883v389h158q51 0 82.5 -31 t31.5 -82q0 -49 -29 -80.5t-77 -34.5l123 -161h-64l-121 161h-49v-161h-55zM397 1092h97q27 0 45 18.5t18 48.5t-18 49t-45 19h-97v-135z" />
<glyph unicode="&#xaf;" horiz-adv-x="958" d="M164 1327v107h631v-107h-631z" />
<glyph unicode="&#xb0;" horiz-adv-x="845" d="M109 1174q0 141 87.5 229t227.5 88q139 0 226 -88t87 -229q0 -138 -87 -226t-226 -88t-227 88t-88 226zM244 1174q0 -84 50.5 -138.5t129.5 -54.5t129.5 54.5t50.5 138.5q0 86 -50.5 141t-129.5 55t-129.5 -55t-50.5 -141z" />
<glyph unicode="&#xb1;" horiz-adv-x="1189" d="M164 197v131h862v-131h-862zM164 813v129h362v369h138v-369h362v-129h-362v-364h-138v364h-362z" />
<glyph unicode="&#xb2;" horiz-adv-x="653" d="M113 1348q95 98 219 98q92 0 152.5 -54t60.5 -141q0 -56 -32 -118.5t-73.5 -109t-93 -91t-77.5 -63t-40 -27.5h326v-74h-434v74q14 9 36.5 25.5t80.5 65t102 94.5t80.5 106t36.5 108q0 60 -35 95.5t-98 35.5q-95 0 -164 -72z" />
<glyph unicode="&#xb3;" horiz-adv-x="655" d="M100 858l47 49q59 -71 175 -71q64 0 104.5 34t40.5 88q0 58 -42 95t-108 37h-41v65h43q57 0 92 30.5t35 78.5q0 46 -34.5 75t-89.5 29q-103 0 -164 -74l-47 49q83 99 217 99q92 0 149.5 -47t57.5 -121q0 -53 -32 -92t-89 -60q65 -21 103 -66t38 -106q0 -84 -63.5 -136 t-165.5 -52q-137 0 -226 96z" />
<glyph unicode="&#xb4;" horiz-adv-x="661" d="M137 1237l299 299l99 -100l-332 -267z" />
<glyph unicode="&#xb5;" horiz-adv-x="1253" d="M164 -461v1485h160v-604q0 -135 77.5 -218t200.5 -83q142 0 234 113.5t94 279.5v512h160v-1024h-160v266q-53 -128 -157 -202t-238 -74q-145 0 -216 104v-555h-155z" />
<glyph unicode="&#xb6;" horiz-adv-x="1294" d="M74 1075q0 158 98.5 258.5t255.5 100.5h743v-142h-174v-1650h-157v1650h-254v-1650h-158v1075q-157 0 -255.5 100t-98.5 258z" />
<glyph unicode="&#xb7;" d="M164 500v229h160v-229h-160z" />
<glyph unicode="&#xb8;" horiz-adv-x="618" d="M117 -326q10 10 30.5 30t30.5 30q30 -30 55.5 -45t61.5 -15q42 0 66 19.5t24 50.5q0 21 -10.5 36.5t-27 24t-35 23.5t-35 33t-27 54t-10.5 85h92q0 -52 15 -83.5t36 -46t42.5 -27t36.5 -39t15 -70.5q0 -66 -50 -107t-128 -41q-104 0 -182 88z" />
<glyph unicode="&#xb9;" horiz-adv-x="561" d="M104 1303l222 131h86v-666h-86v571l-185 -104z" />
<glyph unicode="&#xba;" horiz-adv-x="948" d="M109 1075q0 163 101.5 265t262.5 102q163 0 265 -102t102 -265t-102 -264.5t-265 -101.5q-161 0 -262.5 101.5t-101.5 264.5zM225 1075q0 -119 70 -194.5t180 -75.5t179 75.5t69 194.5t-69 195t-179 76t-180 -76t-70 -195z" />
<glyph unicode="&#xbb;" horiz-adv-x="1271" d="M158 244l319 319l-319 320l96 98l418 -418l-418 -418zM614 244l320 319l-320 320l97 98l415 -418l-415 -418z" />
<glyph unicode="&#xbf;" horiz-adv-x="1064" d="M111 102q0 77 19.5 135t51 93.5t69.5 65.5t76 59.5t69.5 64.5t51 92.5t19.5 132.5h160q0 -93 -20 -163.5t-51.5 -112.5t-69.5 -75t-76.5 -59t-70 -54.5t-51.5 -72t-20 -102.5q0 -102 76 -169.5t207 -67.5q110 0 191 41t155 123l82 -86q-92 -103 -197 -155t-247 -52 q-189 0 -306.5 100t-117.5 262zM467 952v230h160v-230h-160z" />
<glyph unicode="&#xc0;" horiz-adv-x="1714" d="M104 0l668 1434h172l666 -1434h-166l-184 393h-803l-185 -393h-168zM518 535h680l-340 718zM657 1845l99 101l299 -299l-66 -68z" />
<glyph unicode="&#xc1;" horiz-adv-x="1714" d="M104 0l668 1434h172l666 -1434h-166l-184 393h-803l-185 -393h-168zM518 535h680l-340 718zM657 1647l299 299l99 -101l-332 -266z" />
<glyph unicode="&#xc2;" horiz-adv-x="1714" d="M104 0l668 1434h172l666 -1434h-166l-184 393h-803l-185 -393h-168zM518 535h680l-340 718zM526 1714l330 232l328 -232l-82 -84l-246 176l-248 -176z" />
<glyph unicode="&#xc3;" horiz-adv-x="1714" d="M104 0l668 1434h172l666 -1434h-166l-184 393h-803l-185 -393h-168zM481 1759q112 115 230 115q58 0 158 -38t147 -38q72 0 141 64l70 -70q-112 -115 -226 -115q-57 0 -156.5 38t-148.5 38q-77 0 -145 -63q-13 11 -70 69zM518 535h680l-340 718z" />
<glyph unicode="&#xc4;" horiz-adv-x="1714" d="M104 0l668 1434h172l666 -1434h-166l-184 393h-803l-185 -393h-168zM518 535h680l-340 718zM541 1651v192h159v-192h-159zM1012 1651v192h157v-192h-157z" />
<glyph unicode="&#xc5;" horiz-adv-x="1714" d="M104 0l668 1434h172l666 -1434h-166l-184 393h-803l-185 -393h-168zM518 535h680l-340 718zM694 1786q0 73 44.5 118.5t115.5 45.5t115.5 -45.5t44.5 -118.5q0 -72 -44.5 -117t-115.5 -45t-115.5 45t-44.5 117zM762 1786q0 -41 25.5 -66.5t66.5 -25.5t66.5 25.5 t25.5 66.5q0 43 -25.5 68.5t-66.5 25.5t-66.5 -25.5t-25.5 -68.5z" />
<glyph unicode="&#xc6;" horiz-adv-x="1855" d="M104 0l668 1434h948v-142h-704v-489h647v-141h-647v-521h719v-141h-887v393h-391l-185 -393h-168zM518 535h330v698z" />
<glyph unicode="&#xc7;" horiz-adv-x="1488" d="M109 717q0 160 53.5 295.5t148.5 230.5t230.5 148t294.5 53q323 0 530 -207l-100 -102q-73 80 -183 125t-241 45q-250 0 -408 -164t-158 -424t158 -424t408 -164q132 0 242 44t182 126l100 -102q-204 -204 -526 -207q1 -48 16.5 -77.5t36.5 -43t42 -26.5t35.5 -39.5 t14.5 -69.5q0 -66 -50 -107t-128 -41q-104 0 -182 88q10 10 30.5 30t30.5 30q30 -30 55.5 -45t61.5 -15q42 0 66 19.5t24 50.5q0 25 -14.5 41.5t-36 29t-42.5 30.5t-36 55.5t-16 93.5q-288 28 -463.5 225.5t-175.5 497.5z" />
<glyph unicode="&#xc8;" horiz-adv-x="1284" d="M164 0v1434h975v-142h-805v-489h747v-141h-747v-521h821v-141h-991zM453 1845l98 101l299 -299l-66 -68z" />
<glyph unicode="&#xc9;" horiz-adv-x="1284" d="M164 0v1434h975v-142h-805v-489h747v-141h-747v-521h821v-141h-991zM453 1647l299 299l98 -101l-332 -266z" />
<glyph unicode="&#xca;" horiz-adv-x="1284" d="M164 0v1434h975v-142h-805v-489h747v-141h-747v-521h821v-141h-991zM322 1714l329 232l328 -232l-82 -84l-246 176l-248 -176z" />
<glyph unicode="&#xcb;" horiz-adv-x="1284" d="M164 0v1434h975v-142h-805v-489h747v-141h-747v-521h821v-141h-991zM336 1651v192h160v-192h-160zM807 1651v192h158v-192h-158z" />
<glyph unicode="&#xcc;" horiz-adv-x="497" d="M51 1845l99 101l299 -299l-66 -68zM164 0v1434h170v-1434h-170z" />
<glyph unicode="&#xcd;" horiz-adv-x="497" d="M53 1647l299 299l99 -101l-332 -266zM164 0v1434h170v-1434h-170z" />
<glyph unicode="&#xce;" horiz-adv-x="497" d="M-78 1714l330 232l328 -232l-82 -84l-246 176l-248 -176zM164 0v1434h170v-1434h-170z" />
<glyph unicode="&#xcf;" horiz-adv-x="497" d="M-63 1651v192h159v-192h-159zM164 0v1434h170v-1434h-170zM408 1651v192h157v-192h-157z" />
<glyph unicode="&#xd0;" horiz-adv-x="1724" d="M164 662v141h205v631h536q208 0 370.5 -90.5t252.5 -254t90 -372.5t-90 -372.5t-252.5 -254t-370.5 -90.5h-536v662h-205zM539 141h366q239 0 391 161t152 415q0 253 -152 414t-391 161h-366v-489h487v-141h-487v-521z" />
<glyph unicode="&#xd1;" horiz-adv-x="1560" d="M164 0v1434h170l893 -1170v1170h170v-1434h-170l-893 1169v-1169h-170zM406 1759q112 115 229 115q58 0 158 -38t147 -38q72 0 141 64l70 -70q-112 -115 -225 -115q-57 0 -156.5 38t-148.5 38q-78 0 -146 -63q-11 10 -22 21t-24.5 25t-22.5 23z" />
<glyph unicode="&#xd2;" horiz-adv-x="1660" d="M109 717q0 159 53 294.5t147 230.5t228 148.5t292 53.5q212 0 376.5 -91.5t255.5 -257t91 -378.5t-91 -378.5t-255.5 -257t-376.5 -91.5q-158 0 -292 53.5t-228 148.5t-147 230.5t-53 294.5zM276 717q0 -258 155 -423t398 -165q163 0 289.5 75t196 209t69.5 304 t-69.5 304t-196 209t-289.5 75q-243 0 -398 -165t-155 -423zM629 1845l98 101l299 -299l-65 -68z" />
<glyph unicode="&#xd3;" horiz-adv-x="1660" d="M109 717q0 159 53 294.5t147 230.5t228 148.5t292 53.5q212 0 376.5 -91.5t255.5 -257t91 -378.5t-91 -378.5t-255.5 -257t-376.5 -91.5q-158 0 -292 53.5t-228 148.5t-147 230.5t-53 294.5zM276 717q0 -258 155 -423t398 -165q163 0 289.5 75t196 209t69.5 304 t-69.5 304t-196 209t-289.5 75q-243 0 -398 -165t-155 -423zM631 1647l299 299l98 -101l-332 -266z" />
<glyph unicode="&#xd4;" horiz-adv-x="1660" d="M109 717q0 159 53 294.5t147 230.5t228 148.5t292 53.5q212 0 376.5 -91.5t255.5 -257t91 -378.5t-91 -378.5t-255.5 -257t-376.5 -91.5q-158 0 -292 53.5t-228 148.5t-147 230.5t-53 294.5zM276 717q0 -258 155 -423t398 -165q163 0 289.5 75t196 209t69.5 304 t-69.5 304t-196 209t-289.5 75q-243 0 -398 -165t-155 -423zM500 1714l329 232l328 -232l-82 -84l-246 176l-247 -176z" />
<glyph unicode="&#xd5;" horiz-adv-x="1660" d="M109 717q0 159 53 294.5t147 230.5t228 148.5t292 53.5q212 0 376.5 -91.5t255.5 -257t91 -378.5t-91 -378.5t-255.5 -257t-376.5 -91.5q-158 0 -292 53.5t-228 148.5t-147 230.5t-53 294.5zM276 717q0 -258 155 -423t398 -165q163 0 289.5 75t196 209t69.5 304 t-69.5 304t-196 209t-289.5 75q-243 0 -398 -165t-155 -423zM457 1759q112 115 229 115q58 0 158 -38t147 -38q73 0 142 64l69 -70q-112 -115 -225 -115q-57 0 -156.5 38t-148.5 38q-78 0 -146 -63q-11 10 -22 21t-24.5 25t-22.5 23z" />
<glyph unicode="&#xd6;" horiz-adv-x="1660" d="M109 717q0 159 53 294.5t147 230.5t228 148.5t292 53.5q212 0 376.5 -91.5t255.5 -257t91 -378.5t-91 -378.5t-255.5 -257t-376.5 -91.5q-158 0 -292 53.5t-228 148.5t-147 230.5t-53 294.5zM276 717q0 -258 155 -423t398 -165q163 0 289.5 75t196 209t69.5 304 t-69.5 304t-196 209t-289.5 75q-243 0 -398 -165t-155 -423zM514 1651v192h160v-192h-160zM985 1651v192h158v-192h-158z" />
<glyph unicode="&#xd7;" horiz-adv-x="1189" d="M188 430l310 307l-310 307l97 101l309 -307l311 307l96 -98l-309 -310l309 -309l-96 -98l-311 307l-309 -307z" />
<glyph unicode="&#xd8;" horiz-adv-x="1660" d="M109 717q0 159 53 294.5t147 230.5t228 148.5t292 53.5q168 0 306 -60l88 152h159l-125 -219q140 -95 217.5 -250.5t77.5 -349.5q0 -213 -91 -378.5t-255.5 -257t-376.5 -91.5q-170 0 -303 59l-88 -151h-159l122 217q-138 95 -215 251t-77 351zM276 717 q0 -146 54.5 -264.5t152.5 -196.5l580 999q-110 50 -234 50q-243 0 -398 -165t-155 -423zM598 176q103 -47 231 -47q163 0 289.5 75t196 209t69.5 304q0 147 -53.5 266t-150.5 195z" />
<glyph unicode="&#xd9;" horiz-adv-x="1583" d="M164 625v809h170v-809q0 -221 127 -358.5t330 -137.5q205 0 331.5 137t126.5 359v809h168v-809q0 -292 -171 -463.5t-455 -171.5t-455.5 171.5t-171.5 463.5zM590 1845l98 101l299 -299l-65 -68z" />
<glyph unicode="&#xda;" horiz-adv-x="1583" d="M164 625v809h170v-809q0 -221 127 -358.5t330 -137.5q205 0 331.5 137t126.5 359v809h168v-809q0 -292 -171 -463.5t-455 -171.5t-455.5 171.5t-171.5 463.5zM592 1647l299 299l98 -101l-332 -266z" />
<glyph unicode="&#xdb;" horiz-adv-x="1583" d="M164 625v809h170v-809q0 -221 127 -358.5t330 -137.5q205 0 331.5 137t126.5 359v809h168v-809q0 -292 -171 -463.5t-455 -171.5t-455.5 171.5t-171.5 463.5zM461 1714l330 232l327 -232l-82 -84l-245 176l-248 -176z" />
<glyph unicode="&#xdc;" horiz-adv-x="1583" d="M164 625v809h170v-809q0 -221 127 -358.5t330 -137.5q205 0 331.5 137t126.5 359v809h168v-809q0 -292 -171 -463.5t-455 -171.5t-455.5 171.5t-171.5 463.5zM475 1651v192h160v-192h-160zM946 1651v192h158v-192h-158z" />
<glyph unicode="&#xdd;" horiz-adv-x="1521" d="M104 1434h177l479 -744l481 744h174l-571 -899v-535h-168v535zM561 1647l299 299l98 -101l-331 -266z" />
<glyph unicode="&#xde;" horiz-adv-x="1222" d="M164 0v1434h170v-240h338q195 0 318.5 -124t123.5 -322q0 -199 -123.5 -324t-318.5 -125h-338v-299h-170zM334 440h319q130 0 211.5 86t81.5 222q0 135 -81.5 220t-211.5 85h-319v-613z" />
<glyph unicode="&#xdf;" horiz-adv-x="1296" d="M164 0v1137q0 161 103 259.5t268 98.5q164 0 270 -95.5t106 -240.5q0 -45 -18.5 -84.5t-46.5 -66t-61 -56t-61 -54.5t-46.5 -61t-18.5 -77q0 -44 29 -78.5t75.5 -57t102.5 -43.5t112.5 -45t103 -54t75.5 -78t29 -109q0 -134 -105.5 -219.5t-257.5 -85.5q-205 0 -344 149 l84 86q95 -106 258 -106q88 0 147.5 48.5t59.5 121.5q0 41 -29 73.5t-75.5 54.5t-102.5 43t-112 46.5t-102.5 57t-75.5 82t-29 114.5q0 55 26 105t62.5 86.5t73 69.5t62.5 69.5t26 72.5q0 90 -59.5 146.5t-151.5 56.5q-95 0 -156 -59.5t-61 -153.5v-1153h-160z" />
<glyph unicode="&#xe0;" horiz-adv-x="1130" d="M102 283q0 147 134.5 238t349.5 91q125 0 231 -20v59q0 114 -73.5 184t-190.5 70q-203 0 -320 -92l-81 82q154 139 391 139q192 0 312 -105.5t120 -273.5v-655h-158v229q-48 -109 -145.5 -173t-225.5 -64q-151 0 -247.5 81t-96.5 210zM262 295q0 -79 67.5 -127.5 t174.5 -48.5q136 0 224.5 105.5t88.5 258.5q-93 29 -221 29q-149 0 -241.5 -60t-92.5 -157zM346 1436l96 100l301 -299l-65 -68z" />
<glyph unicode="&#xe1;" horiz-adv-x="1130" d="M104 283q0 147 134 238t350 91q125 0 231 -20v59q0 113 -74 183.5t-192 70.5q-200 0 -320 -92l-79 82q154 139 391 139q192 0 312 -105.5t120 -273.5v-655h-158v229q-51 -110 -147.5 -173.5t-222.5 -63.5q-152 0 -248.5 81t-96.5 210zM262 295q0 -79 68.5 -127.5 t173.5 -48.5q137 0 226 105.5t89 258.5q-93 29 -221 29q-149 0 -242.5 -60t-93.5 -157zM346 1237l299 299l98 -100l-331 -267z" />
<glyph unicode="&#xe2;" horiz-adv-x="1130" d="M104 283q0 147 134 238t350 91q125 0 231 -20v59q0 113 -74 183.5t-192 70.5q-200 0 -320 -92l-79 82q154 139 391 139q192 0 312 -105.5t120 -273.5v-655h-158v229q-51 -110 -147.5 -173.5t-222.5 -63.5q-152 0 -248.5 81t-96.5 210zM213 1305l330 231l327 -231l-82 -84 l-245 176l-248 -176zM262 295q0 -79 68.5 -127.5t173.5 -48.5q137 0 226 105.5t89 258.5q-93 29 -221 29q-149 0 -242.5 -60t-93.5 -157z" />
<glyph unicode="&#xe3;" horiz-adv-x="1130" d="M104 283q0 147 134 238t350 91q125 0 231 -20v59q0 113 -74 183.5t-192 70.5q-200 0 -320 -92l-79 82q154 139 391 139q192 0 312 -105.5t120 -273.5v-655h-158v229q-51 -110 -147.5 -173.5t-222.5 -63.5q-152 0 -248.5 81t-96.5 210zM172 1350q111 114 229 114 q58 0 158.5 -37.5t147.5 -37.5q73 0 141 63l70 -70q-111 -114 -226 -114q-57 0 -156.5 37.5t-148.5 37.5q-77 0 -145 -63zM262 295q0 -79 68.5 -127.5t173.5 -48.5q137 0 226 105.5t89 258.5q-93 29 -221 29q-149 0 -242.5 -60t-93.5 -157z" />
<glyph unicode="&#xe4;" horiz-adv-x="1130" d="M104 283q0 147 134 238t350 91q125 0 231 -20v59q0 113 -74 183.5t-192 70.5q-200 0 -320 -92l-79 82q154 139 391 139q192 0 312 -105.5t120 -273.5v-655h-158v229q-51 -110 -147.5 -173.5t-222.5 -63.5q-152 0 -248.5 81t-96.5 210zM229 1241v193h160v-193h-160z M262 295q0 -79 68.5 -127.5t173.5 -48.5q137 0 226 105.5t89 258.5q-93 29 -221 29q-149 0 -242.5 -60t-93.5 -157zM700 1241v193h158v-193h-158z" />
<glyph unicode="&#xe5;" horiz-adv-x="1130" d="M104 283q0 147 134 238t350 91q125 0 231 -20v59q0 113 -74 183.5t-192 70.5q-200 0 -320 -92l-79 82q154 139 391 139q192 0 312 -105.5t120 -273.5v-655h-158v229q-51 -110 -147.5 -173.5t-222.5 -63.5q-152 0 -248.5 81t-96.5 210zM262 295q0 -79 68.5 -127.5 t173.5 -48.5q137 0 226 105.5t89 258.5q-93 29 -221 29q-149 0 -242.5 -60t-93.5 -157zM383 1376q0 73 44.5 118.5t115.5 45.5t115 -45.5t44 -118.5q0 -72 -44 -117t-115 -45t-115.5 45t-44.5 117zM451 1376q0 -41 25.5 -66.5t66.5 -25.5t66.5 25.5t25.5 66.5 q0 43 -25.5 68.5t-66.5 25.5t-66.5 -25.5t-25.5 -68.5z" />
<glyph unicode="&#xe6;" horiz-adv-x="1892" d="M106 281q0 147 133.5 238t346.5 91q121 0 231 -22v26q0 143 -83.5 215t-219.5 72q-161 0 -281 -90q-13 15 -39.5 42.5t-39.5 41.5q145 139 385 139q128 0 226 -59.5t144 -161.5q60 103 162.5 162t233.5 59q215 0 349 -145t134 -377v-45h-813q9 -156 114.5 -253t266.5 -97 q187 0 291 110q14 -13 28.5 -27.5t33 -33.5t28.5 -29q-150 -147 -389 -147q-154 0 -272.5 66.5t-178.5 185.5q-55 -120 -164 -184t-264 -64q-159 0 -261 79.5t-102 207.5zM266 295q0 -81 67 -129.5t173 -48.5q133 0 220.5 103t90.5 257q-90 33 -219 33q-148 0 -240 -60 t-92 -155zM977 580h653q-6 145 -96.5 235t-226.5 90q-133 0 -224 -89.5t-106 -235.5z" />
<glyph unicode="&#xe7;" horiz-adv-x="1103" d="M109 512q0 232 145 377t377 145q233 0 379 -149l-86 -88q-105 108 -285 108q-165 0 -269 -109.5t-104 -283.5t104 -283.5t269 -109.5q180 0 285 108l86 -88q-140 -146 -375 -149q1 -48 16.5 -77.5t36.5 -43t42 -26.5t35.5 -39.5t14.5 -69.5q0 -66 -50 -107t-128 -41 q-104 0 -182 88q10 10 30.5 30t30.5 30q30 -30 55.5 -45t61.5 -15q42 0 66 19.5t24 50.5q0 25 -14.5 41.5t-36 29.5t-42.5 30.5t-36 56t-16 94.5q-196 26 -315 166t-119 350z" />
<glyph unicode="&#xe8;" horiz-adv-x="1185" d="M106 512q0 231 136 376.5t352 145.5q215 0 350 -145t135 -377v-45h-813q9 -156 114.5 -253t266.5 -97q184 0 291 110q59 -59 88 -90q-147 -147 -387 -147q-236 0 -384.5 145t-148.5 377zM268 580h652q-4 145 -95 235t-227 90q-135 0 -225.5 -89.5t-104.5 -235.5z M391 1436l98 100l299 -299l-65 -68z" />
<glyph unicode="&#xe9;" horiz-adv-x="1185" d="M106 512q0 231 136 376.5t352 145.5q215 0 350 -145t135 -377v-45h-813q9 -156 114.5 -253t266.5 -97q184 0 291 110q59 -59 88 -90q-147 -147 -387 -147q-236 0 -384.5 145t-148.5 377zM268 580h652q-4 145 -95 235t-227 90q-135 0 -225.5 -89.5t-104.5 -235.5z M393 1237l299 299l99 -100l-332 -267z" />
<glyph unicode="&#xea;" horiz-adv-x="1185" d="M106 512q0 231 136 376.5t352 145.5q215 0 350 -145t135 -377v-45h-813q9 -156 114.5 -253t266.5 -97q184 0 291 110q59 -59 88 -90q-147 -147 -387 -147q-236 0 -384.5 145t-148.5 377zM262 1305l330 231l328 -231l-82 -84l-246 176l-248 -176zM268 580h652 q-4 145 -95 235t-227 90q-135 0 -225.5 -89.5t-104.5 -235.5z" />
<glyph unicode="&#xeb;" horiz-adv-x="1185" d="M106 512q0 231 136 376.5t352 145.5q215 0 350 -145t135 -377v-45h-813q9 -156 114.5 -253t266.5 -97q184 0 291 110q59 -59 88 -90q-147 -147 -387 -147q-236 0 -384.5 145t-148.5 377zM268 580h652q-4 145 -95 235t-227 90q-135 0 -225.5 -89.5t-104.5 -235.5z M276 1241v193h160v-193h-160zM748 1241v193h157v-193h-157z" />
<glyph unicode="&#xec;" d="M47 1436l98 100l299 -299l-65 -68zM164 0v1024h160v-1024h-160z" />
<glyph unicode="&#xed;" d="M47 1237l299 299l98 -100l-331 -267zM164 0v1024h160v-1024h-160z" />
<glyph unicode="&#xee;" d="M-84 1305l330 231l327 -231l-81 -84l-246 176l-248 -176zM164 0v1024h160v-1024h-160z" />
<glyph unicode="&#xef;" d="M-70 1241v193h160v-193h-160zM164 0v1024h160v-1024h-160zM401 1241v193h158v-193h-158z" />
<glyph unicode="&#xf0;" horiz-adv-x="1259" d="M145 512q0 230 128 375t327 145q130 0 235 -68t158 -184q0 283 -194 447l-76 -103h-121l117 158q-88 54 -194.5 85t-168.5 35l-63 5l90 92q9 0 24 -0.5t62 -7t93.5 -17t110 -33.5t118.5 -55l75 99h119l-111 -152q277 -205 277 -616v-205q0 -232 -139.5 -377t-360.5 -145 q-224 0 -365 145t-141 377zM303 510q0 -173 96 -282t250 -109q155 3 249.5 111.5t94.5 279.5q0 173 -96 282t-248 109q-154 0 -250 -109t-96 -282z" />
<glyph unicode="&#xf1;" horiz-adv-x="1253" d="M164 0v1024h160v-258q55 124 158.5 196t236.5 72q164 0 267.5 -108.5t103.5 -280.5v-645h-160v616q0 131 -77 210t-202 79q-140 0 -231 -110.5t-96 -272.5v-522h-160zM252 1350q111 114 229 114q58 0 158 -37.5t147 -37.5q74 0 142 63l69 -70q-111 -114 -225 -114 q-57 0 -156.5 37.5t-148.5 37.5q-77 0 -145 -63z" />
<glyph unicode="&#xf2;" horiz-adv-x="1261" d="M109 512q0 232 145 377t377 145t378 -145t146 -377t-146 -377t-378 -145t-377 145t-145 377zM266 512q0 -173 102 -283t263 -110q162 0 263 109.5t101 283.5t-101 283.5t-263 109.5q-161 0 -263 -110t-102 -283zM430 1436l98 100l299 -299l-65 -68z" />
<glyph unicode="&#xf3;" horiz-adv-x="1261" d="M109 512q0 232 145 377t377 145t378 -145t146 -377t-146 -377t-378 -145t-377 145t-145 377zM266 512q0 -173 102 -283t263 -110q162 0 263 109.5t101 283.5t-101 283.5t-263 109.5q-161 0 -263 -110t-102 -283zM430 1237l299 299l98 -100l-331 -267z" />
<glyph unicode="&#xf4;" horiz-adv-x="1261" d="M109 512q0 232 145 377t377 145t378 -145t146 -377t-146 -377t-378 -145t-377 145t-145 377zM266 512q0 -173 102 -283t263 -110q162 0 263 109.5t101 283.5t-101 283.5t-263 109.5q-161 0 -263 -110t-102 -283zM301 1305l330 231l327 -231l-81 -84l-246 176l-248 -176z " />
<glyph unicode="&#xf5;" horiz-adv-x="1261" d="M109 512q0 232 145 377t377 145t378 -145t146 -377t-146 -377t-378 -145t-377 145t-145 377zM256 1350q111 114 229 114q58 0 158.5 -37.5t147.5 -37.5q73 0 141 63l69 -70q-111 -114 -225 -114q-57 0 -156.5 37.5t-148.5 37.5q-77 0 -145 -63zM266 512q0 -173 102 -283 t263 -110q162 0 263 109.5t101 283.5t-101 283.5t-263 109.5q-161 0 -263 -110t-102 -283z" />
<glyph unicode="&#xf6;" horiz-adv-x="1261" d="M109 512q0 232 145 377t377 145t378 -145t146 -377t-146 -377t-378 -145t-377 145t-145 377zM266 512q0 -173 102 -283t263 -110q162 0 263 109.5t101 283.5t-101 283.5t-263 109.5q-161 0 -263 -110t-102 -283zM313 1241v193h160v-193h-160zM784 1241v193h158v-193h-158 z" />
<glyph unicode="&#xf7;" horiz-adv-x="1189" d="M164 672v131h862v-131h-862zM516 289v213h158v-213h-158zM516 973v213h158v-213h-158z" />
<glyph unicode="&#xf8;" horiz-adv-x="1261" d="M109 512q0 232 145 377t377 145q113 0 211 -39l73 131h140l-109 -188q99 -68 154 -178t55 -248q0 -232 -146 -377t-378 -145q-121 0 -209 39l-76 -131h-139l108 186q-99 68 -152.5 178.5t-53.5 249.5zM266 512q0 -91 33 -167t92 -124l383 656q-67 28 -143 28 q-161 0 -263 -110t-102 -283zM487 145q62 -26 144 -26q162 0 263 109.5t101 283.5q0 185 -125 291z" />
<glyph unicode="&#xf9;" horiz-adv-x="1253" d="M164 399v625h160v-604q0 -135 77.5 -218t200.5 -83q139 0 231 110.5t97 272.5v522h160v-1024h-160v256q-57 -123 -160 -194.5t-235 -71.5q-165 0 -268 113t-103 296zM426 1436l98 100l299 -299l-65 -68z" />
<glyph unicode="&#xfa;" horiz-adv-x="1253" d="M164 399v625h160v-604q0 -135 77.5 -218t200.5 -83q144 0 236 116t92 283v506h160v-1024h-160v256q-57 -123 -160 -194.5t-235 -71.5q-165 0 -268 113t-103 296zM426 1237l299 299l98 -100l-331 -267z" />
<glyph unicode="&#xfb;" horiz-adv-x="1253" d="M164 399v625h160v-604q0 -135 77.5 -218t200.5 -83q139 0 231 110.5t97 272.5v522h160v-1024h-160v256q-57 -123 -160 -194.5t-235 -71.5q-165 0 -268 113t-103 296zM297 1305l330 231l327 -231l-82 -84l-245 176l-248 -176z" />
<glyph unicode="&#xfc;" horiz-adv-x="1253" d="M164 399v625h160v-604q0 -135 77.5 -218t200.5 -83q144 0 236 116t92 283v506h160v-1024h-160v256q-57 -123 -160 -194.5t-235 -71.5q-165 0 -268 113t-103 296zM309 1241v193h160v-193h-160zM780 1241v193h158v-193h-158z" />
<glyph unicode="&#xfd;" horiz-adv-x="1290" d="M86 -383l82 84q46 -43 139 -43q62 0 105 51t88 150l67 143l-463 1022h156l383 -842l387 842h158l-559 -1221q-59 -132 -133 -203t-179 -71q-146 0 -231 88zM444 1237l299 299l99 -100l-332 -267z" />
<glyph unicode="&#xfe;" horiz-adv-x="1236" d="M164 -461v1946h158v-729q52 127 153.5 200.5t235.5 73.5q184 0 299.5 -144t115.5 -374q0 -231 -141 -374.5t-367 -143.5q-174 0 -296 74v-529h-158zM322 193q122 -72 282 -72q161 0 263 109t102 282q0 176 -90 282.5t-234 106.5q-140 0 -231.5 -110t-91.5 -269v-329z" />
<glyph unicode="&#xff;" horiz-adv-x="1290" d="M86 -383l82 84q46 -43 139 -43q62 0 105 51t88 150l67 143l-463 1022h156l383 -842l387 842h158l-559 -1221q-59 -132 -133 -203t-179 -71q-146 0 -231 88zM328 1241v193h159v-193h-159zM799 1241v193h157v-193h-157z" />
<glyph unicode="&#x152;" horiz-adv-x="2504" d="M106 717q0 213 91 378.5t255.5 257t376.5 91.5q185 0 331 -78t229 -215v283h968v-142h-805v-491h748v-139h-748v-523h822v-139h-985v279q-83 -136 -228.5 -212.5t-331.5 -76.5q-159 0 -293.5 53t-229 148t-147.5 230.5t-53 295.5zM276 717q0 -259 155 -423.5t398 -164.5 q246 0 399.5 164t153.5 424q0 259 -154 422.5t-399 163.5q-243 0 -398 -164t-155 -422z" />
<glyph unicode="&#x153;" horiz-adv-x="2074" d="M106 512q0 231 146.5 376.5t378.5 145.5q150 0 265.5 -66.5t174.5 -183.5q55 117 163 183.5t249 66.5q215 0 349 -145t134 -377v-45h-813q9 -156 115 -253t268 -97q184 0 291 110q14 -14 43 -44t45 -46q-147 -147 -389 -147q-154 0 -272 67t-179 185 q-59 -118 -175.5 -185t-268.5 -67q-232 0 -378.5 144.5t-146.5 377.5zM266 512q0 -175 102 -285t263 -110q162 0 263 108.5t101 286.5q0 174 -101 283.5t-263 109.5q-161 0 -263 -110t-102 -283zM1155 580h653q-6 145 -96.5 235t-226.5 90q-133 0 -224 -89.5t-106 -235.5z " />
<glyph unicode="&#x178;" horiz-adv-x="1521" d="M104 1434h177l479 -744l481 744h174l-571 -899v-535h-168v535zM444 1651v192h160v-192h-160zM915 1651v192h158v-192h-158z" />
<glyph unicode="&#x2c6;" horiz-adv-x="872" d="M117 1305l329 231l328 -231l-82 -84l-246 176l-247 -176z" />
<glyph unicode="&#x2dc;" horiz-adv-x="966" d="M113 1350q111 114 229 114q58 0 158 -37.5t147 -37.5q73 0 141 63l70 -70q-111 -114 -225 -114q-57 0 -156.5 37.5t-148.5 37.5q-78 0 -146 -63q-14 13 -38 38t-31 32z" />
<glyph unicode="&#x2000;" horiz-adv-x="975" />
<glyph unicode="&#x2001;" horiz-adv-x="1950" />
<glyph unicode="&#x2002;" horiz-adv-x="975" />
<glyph unicode="&#x2003;" horiz-adv-x="1950" />
<glyph unicode="&#x2004;" horiz-adv-x="650" />
<glyph unicode="&#x2005;" />
<glyph unicode="&#x2006;" horiz-adv-x="325" />
<glyph unicode="&#x2007;" horiz-adv-x="325" />
<glyph unicode="&#x2008;" horiz-adv-x="243" />
<glyph unicode="&#x2009;" horiz-adv-x="390" />
<glyph unicode="&#x200a;" horiz-adv-x="108" />
<glyph unicode="&#x2010;" horiz-adv-x="813" d="M164 528v131h483v-131h-483z" />
<glyph unicode="&#x2011;" horiz-adv-x="813" d="M164 528v131h483v-131h-483z" />
<glyph unicode="&#x2012;" horiz-adv-x="813" d="M164 528v131h483v-131h-483z" />
<glyph unicode="&#x2013;" horiz-adv-x="1353" d="M164 528v131h1024v-131h-1024z" />
<glyph unicode="&#x2014;" horiz-adv-x="2052" d="M164 528v131h1724v-131h-1724z" />
<glyph unicode="&#x2018;" horiz-adv-x="571" d="M164 924q0 166 61.5 303.5t159.5 236.5l70 -71q-65 -65 -98 -188t-33 -281h-160z" />
<glyph unicode="&#x2019;" horiz-adv-x="571" d="M117 973q66 66 98.5 189t32.5 282h158q0 -167 -61.5 -305.5t-158.5 -237.5z" />
<glyph unicode="&#x201a;" d="M33 -240q65 65 98 188t33 281h160q0 -166 -62 -303t-160 -237z" />
<glyph unicode="&#x201c;" horiz-adv-x="960" d="M164 924q0 166 61.5 303.5t159.5 236.5l70 -71q-65 -65 -98 -188t-33 -281h-160zM553 924q0 166 61.5 303.5t159.5 236.5l70 -71q-65 -65 -98 -188t-33 -281h-160z" />
<glyph unicode="&#x201d;" horiz-adv-x="960" d="M117 973q66 66 98.5 189t32.5 282h158q0 -167 -61.5 -305.5t-158.5 -237.5zM506 973q66 66 98.5 189t32.5 282h158q0 -167 -61.5 -305.5t-158.5 -237.5z" />
<glyph unicode="&#x201e;" horiz-adv-x="876" d="M33 -240q65 65 98 188t33 281h160q0 -166 -62 -303t-160 -237zM422 -240q65 65 98 188t33 281h160q0 -166 -61.5 -303.5t-159.5 -236.5z" />
<glyph unicode="&#x2022;" horiz-adv-x="634" d="M109 659q0 91 60 151t153 60q90 0 145 -59.5t55 -151.5q0 -89 -55 -146.5t-145 -57.5q-93 0 -153 58t-60 146z" />
<glyph unicode="&#x2026;" horiz-adv-x="1353" d="M164 0v229h160v-229h-160zM598 0v229h158v-229h-158zM1032 0v229h158v-229h-158z" />
<glyph unicode="&#x202f;" horiz-adv-x="390" />
<glyph unicode="&#x2039;" horiz-adv-x="811" d="M139 563l416 418l96 -98l-319 -320l319 -319l-96 -99z" />
<glyph unicode="&#x203a;" horiz-adv-x="811" d="M158 244l319 319l-319 320l96 98l418 -418l-418 -418z" />
<glyph unicode="&#x205f;" />
<glyph unicode="&#x20ac;" horiz-adv-x="1667" d="M113 487v119h178q-6 56 -6 107q0 57 6 112h-178v121h202q65 228 251.5 363t445.5 135q323 0 530 -207q-66 -69 -100 -102q-72 80 -182.5 124t-241.5 44q-188 0 -327 -97t-195 -260h710v-121h-745q-8 -49 -8 -110q0 -60 8 -109h745v-119h-710q56 -166 194.5 -262 t327.5 -96q133 0 242.5 43.5t181.5 124.5l100 -100q-201 -207 -532 -207q-260 0 -445 133.5t-250 363.5h-202z" />
<glyph unicode="&#x2122;" horiz-adv-x="1849" d="M115 1337v97h661v-97h-272v-620h-117v620h-272zM909 717v717h135l281 -543l283 543h135v-717h-117v534l-262 -534h-74l-264 534v-534h-117z" />
<glyph unicode="&#xe000;" horiz-adv-x="1024" d="M0 0v1024h1024v-1024h-1024z" />
</font>
</defs>
</svg>
