<?xml version="1.0" encoding="UTF-8" standalone="no"?>
<svg width="22px" height="14px" viewBox="0 0 22 14" version="1.1" xmlns="http://www.w3.org/2000/svg" xmlns:xlink="http://www.w3.org/1999/xlink" xmlns:sketch="http://www.bohemiancoding.com/sketch/ns">
    <!-- Generator: Sketch 3.0.3 (7892) - http://www.bohemiancoding.com/sketch -->
    <title>Slice 1</title>
    <desc>Created with Sketch.</desc>
    <defs></defs>
    <g id="Page-1" stroke="none" stroke-width="1" fill="none" fill-rule="evenodd" sketch:type="MSPage">
        <g id="Watch" sketch:type="MSLayerGroup" fill="#D0021B">
            <path d="M0,7 C0,7 2.75,0 11,0 C19.25,0 22,7 22,7 C22,7 19.25,14 11,14 C2.75,14 0,7 0,7 Z M11.1803279,12.25 C14.1680978,12.25 16.5901639,9.89949494 16.5901639,7 C16.5901639,4.10050506 14.1680978,1.75 11.1803279,1.75 C8.19255791,1.75 5.7704918,4.10050506 5.7704918,7 C5.7704918,9.89949494 8.19255791,12.25 11.1803279,12.25 Z" id="Shape" sketch:type="MSShapeGroup"></path>
            <path d="M11.2,10.5 C13.1882251,10.5 14.8,8.93299662 14.8,7 L11.2,7 L11.2,3.5 C9.2117749,3.5 7.6,5.06700338 7.6,7 C7.6,8.93299662 9.2117749,10.5 11.2,10.5 Z" id="Oval-112" sketch:type="MSShapeGroup"></path>
        </g>
    </g>
</svg>