<?xml version="1.0" encoding="UTF-8" standalone="no"?>
<svg width="20px" height="17px" viewBox="0 0 20 17" version="1.1" xmlns="http://www.w3.org/2000/svg" xmlns:xlink="http://www.w3.org/1999/xlink" xmlns:sketch="http://www.bohemiancoding.com/sketch/ns">
    <!-- Generator: Sketch 3.0.3 (7892) - http://www.bohemiancoding.com/sketch -->
    <title>Slice 1</title>
    <desc>Created with Sketch.</desc>
    <defs></defs>
    <g id="Page-1" stroke="none" stroke-width="1" fill="none" fill-rule="evenodd" sketch:type="MSPage">
        <g id="Сam-icon-2" sketch:type="MSLayerGroup" fill="#D8D8D8">
            <path d="M18.058318,7.96518513 C18.058318,10.2184442 16.3365071,12.0452484 14.2126485,12.0452484 C12.0887899,12.0452484 10.3668122,10.2184442 10.3668122,7.96518513 C10.3668122,5.7121914 12.0887899,3.88556401 14.2126485,3.88556401 C16.3365071,3.88556401 18.058318,5.7121914 18.058318,7.96518513" id="Fill-1" sketch:type="MSShapeGroup"></path>
            <path d="M19.2832794,1.4316229 L6.23702958,1.4316229 L6.23702958,0 L3.17861248,0 L3.17861248,1.4316229 L2.11856997,1.4316229 C1.5037049,1.4316229 1.00238577,1.95288808 1.00238577,2.5903394 L1.00238577,11.3588112 L0,11.3588112 L0,14.5016026 L1.00238577,14.5016026 L1.00238577,15.8406261 C1.00238577,16.4780774 1.5037049,16.9993426 2.11856997,16.9993426 L19.2832794,16.9993426 C19.8978078,16.9993426 20.3992111,16.4780774 20.3992111,15.8406261 L20.3992111,2.5903394 C20.3992111,1.95288808 19.8978078,1.4316229 19.2832794,1.4316229 L19.2832794,1.4316229 Z M6.68826593,13.1512142 C6.68826593,13.771934 6.132537,14.2794478 5.45449009,14.2794478 L4.57660755,14.2794478 C3.89837474,14.2794478 3.34413296,13.771934 3.34413296,13.1512142 L3.34413296,12.3478847 C3.34413296,11.7270798 3.89837474,11.2195661 4.57660755,11.2195661 L5.45449009,11.2195661 C6.132537,11.2195661 6.68826593,11.7270798 6.68826593,12.3478847 L6.68826593,13.1512142 L6.68826593,13.1512142 Z M3.00971967,3.73985536 L6.35385263,3.73985536 L6.35385263,9.51963183 L3.00971967,9.51963183 L3.00971967,3.73985536 Z M19.0615579,12.400531 C19.0615579,13.0601349 18.5469454,13.599474 17.9191129,13.599474 L9.8365019,13.599474 C9.20866944,13.599474 8.6947457,13.0601349 8.6947457,12.400531 L8.6947457,3.91892823 C8.6947457,3.25941467 9.20866944,2.71989481 9.8365019,2.71989481 L17.9191129,2.71989481 C18.5469454,2.71989481 19.0615579,3.25941467 19.0615579,3.91892823 L19.0615579,12.400531 L19.0615579,12.400531 Z" id="Fill-2" sketch:type="MSShapeGroup"></path>
        </g>
    </g>
</svg>