<?xml version="1.0" encoding="UTF-8" standalone="no"?>
<svg width="114px" height="89px" viewBox="0 0 114 89" version="1.1" xmlns="http://www.w3.org/2000/svg" xmlns:xlink="http://www.w3.org/1999/xlink" xmlns:sketch="http://www.bohemiancoding.com/sketch/ns">
    <!-- Generator: Sketch 3.0.3 (7892) - http://www.bohemiancoding.com/sketch -->
    <title>Slice 1</title>
    <desc>Created with Sketch.</desc>
    <defs></defs>
    <g id="Page-1" stroke="none" stroke-width="1" fill="none" fill-rule="evenodd" sketch:type="MSPage">
        <g id="Imported-Layers" sketch:type="MSLayerGroup" transform="translate(1.000000, 0.000000)">
            <path d="M16.3426786,12.2144348 L11.3089885,12.2144348 L11.3089885,53.3853565 L28.8446607,53.3853565 L28.8446607,48.6030938 L16.3426786,48.6030938 L16.3426786,12.2144348" id="Fill-2" fill="#FFFFFF" sketch:type="MSShapeGroup"></path>
            <path d="M34.1318924,53.3853565 L39.165726,53.3853565 L39.165726,12.1594302 L34.1318924,12.1594302 L34.1318924,53.3853565" id="Fill-5" fill="#FFFFFF" sketch:type="MSShapeGroup"></path>
            <path d="M56.2747657,48.6030937 L55.113178,48.6030937 L49.6922919,12.1594302 L44.547749,12.1594302 L50.7431703,53.6052323 L60.5895621,53.6052323 L66.8956927,12.1594302 L61.8067913,12.1594302 L56.2747657,48.6030937" id="Fill-6" fill="#FFFFFF" sketch:type="MSShapeGroup"></path>
            <path d="M72.4163892,53.3853565 L90.1736236,53.3853565 L90.1736236,48.383218 L77.450653,48.383218 L77.450653,35.5209832 L87.4631088,35.5209832 L87.4631088,30.5187022 L77.450653,30.5187022 L77.450653,17.2167158 L89.3990883,17.2167158 L89.3990883,12.2144348 L72.4163892,12.2144348 L72.4163892,53.3853565" id="Fill-7" fill="#FFFFFF" sketch:type="MSShapeGroup"></path>
            <path d="M20.3936082,80.2811669 L13.8656287,80.2811669 C13.2508476,80.2811669 12.7525122,80.777918 12.7525122,81.3908057 C12.7525122,82.0036935 13.2508476,82.5005871 13.8657721,82.5005871 L18.1265045,82.5005871 L18.1265045,83.6214834 C18.1265045,84.5004165 16.9938848,85.2194659 15.6094443,85.2194659 L5.60387196,85.2194659 C4.2194315,85.2194659 3.08681178,84.5004165 3.08681178,83.6214834 L3.08681178,77.2737278 C3.08681178,76.3949372 4.2194315,75.6757453 5.60387196,75.6757453 L10.4151396,75.6756028 C10.9775775,75.6756028 11.4336082,75.2210313 11.4336082,74.6602982 C11.4336082,74.0995651 10.9775775,73.6449936 10.4151396,73.6449936 L5.29483227,73.6449936 C2.4178233,73.6449936 0.063815621,75.1430844 0.063815621,76.9741952 L0.063815621,83.7656922 C0.063815621,85.5966605 2.4178233,87.0948938 5.29483227,87.0948938 L15.966525,87.0948938 C18.8435339,87.0948938 21.197685,85.5966605 21.197685,83.7656922 L21.197685,81.0801582 C21.197685,80.6406916 20.835872,80.2811669 20.3936082,80.2811669" id="Fill-8" fill="#FFFFFF" sketch:type="MSShapeGroup"></path>
            <path d="M36.7575109,76.5134963 L30.3023816,76.5134963 C27.0054802,76.5134963 24.3081588,78.0715791 24.3081588,79.9759343 L24.3081588,83.7045602 C24.3081588,85.6087729 27.0054802,87.1668557 30.3023816,87.1668557 L36.7575109,87.1668557 C40.0544123,87.1668557 42.7517337,85.6087729 42.7517337,83.7045602 L42.7517337,79.9759343 C42.7517337,78.0715791 40.0544123,76.5134963 36.7575109,76.5134963 L36.7575109,76.5134963 Z M39.8520666,83.6823304 C39.8520666,84.5612635 38.5312983,85.2803129 36.9171216,85.2803129 L30.1426274,85.2803129 C28.5284507,85.2803129 27.2078259,84.5612635 27.2078259,83.6823304 L27.2078259,79.9980216 C27.2078259,79.1190884 28.5284507,78.4000391 30.1426274,78.4000391 L36.9171216,78.4000391 C38.5312983,78.4000391 39.8520666,79.1190884 39.8520666,79.9980216 L39.8520666,83.6823304 L39.8520666,83.6823304 Z" id="Fill-9" fill="#FFFFFF" sketch:type="MSShapeGroup"></path>
            <path d="M61.093347,73.6227638 L46.732968,73.6227638 C46.2168502,73.6227638 45.7948067,74.0422805 45.7948067,74.5549915 L45.7948067,86.2847876 C45.7948067,86.7973561 46.2169936,87.2168728 46.732968,87.2168728 L47.9837542,87.2168728 C48.4995851,87.2168728 48.9217721,86.7973561 48.9217721,86.2847876 L48.9217721,82.3895805 L61.093347,82.3895805 C64.4834622,82.3895805 67.257219,80.8314976 67.257219,78.9272849 L67.257219,77.0852018 C67.257219,75.1808466 64.4834622,73.6227638 61.093347,73.6227638 L61.093347,73.6227638 Z M64.2203124,78.796186 C64.2203124,79.6128471 63.0307606,80.2811669 61.5767682,80.2811669 L48.9217721,80.2811669 L48.9217721,75.5093066 L61.5767682,75.5093066 C63.0307606,75.5093066 64.2203124,76.1774839 64.2203124,76.9942875 L64.2203124,78.796186 L64.2203124,78.796186 Z" id="Fill-10" fill="#FFFFFF" sketch:type="MSShapeGroup"></path>
            <path d="M77.8563483,76.5134963 L75.8670218,76.5134963 C72.5702638,76.5134963 69.872799,78.0715791 69.872799,79.9759343 L69.872799,86.229213 C69.872799,86.7417815 70.2949859,87.1612983 70.8109603,87.1612983 L71.8344481,87.1612983 C72.3504225,87.1612983 72.7726095,86.7417815 72.7726095,86.229213 L72.7726095,79.9980216 C72.7726095,79.1190884 74.0932343,78.4000391 75.707411,78.4000391 L77.8563483,78.4000391 C78.3819309,78.4000391 78.8078464,77.9776723 78.8078464,77.4568389 C78.8078464,76.935863 78.3819309,76.5134963 77.8563483,76.5134963" id="Fill-11" fill="#FFFFFF" sketch:type="MSShapeGroup"></path>
            <path d="M93.3114878,76.5134963 L86.8562151,76.5134963 C83.5593137,76.5134963 80.8619923,78.0715791 80.8619923,79.9759343 L80.8619923,83.7045602 C80.8619923,85.6087729 83.5593137,87.1668557 86.8562151,87.1668557 L93.3114878,87.1668557 C96.6082458,87.1668557 99.3057106,85.6087729 99.3057106,83.7045602 L99.3057106,79.9759343 C99.3057106,78.0715791 96.6082458,76.5134963 93.3114878,76.5134963 L93.3114878,76.5134963 Z M96.4059001,83.6823304 C96.4059001,84.5612635 95.0852753,85.2803129 93.4710986,85.2803129 L86.6966044,85.2803129 C85.0824277,85.2803129 83.7616594,84.5612635 83.7616594,83.6823304 L83.7616594,79.9980216 C83.7616594,79.1190884 85.0824277,78.4000391 86.6966044,78.4000391 L93.4710986,78.4000391 C95.0852753,78.4000391 96.4059001,79.1190884 96.4059001,79.9980216 L96.4059001,83.6823304 L96.4059001,83.6823304 Z" id="Fill-12" fill="#FFFFFF" sketch:type="MSShapeGroup"></path>
            <path d="M93.5743508,35.5209832 L93.5743508,42.8866083 L106.850294,42.8866083 L106.850294,53.3853565 L111.994837,53.3853565 L111.994837,12.1594302 L102.535928,12.1594302 L93.5743508,35.5209832 L93.5743508,35.5209832 Z M106.850294,16.941693 L106.850294,37.8844698 L98.6632522,37.8844698 L98.6632522,36.4003438 L106.076333,16.941693 L106.850294,16.941693 L106.850294,16.941693 Z" id="Fill-13" fill="#FFFFFF" sketch:type="MSShapeGroup"></path>
            <path d="M98.7428425,-0.0634120058 L0.063815621,-0.0634120058 L0.063815621,65.6633458 L98.7428425,65.6633458 L98.7428425,48.383218 L93.7091524,48.383218 L93.7091524,60.8810831 L5.09750576,60.8810831 L5.09750576,4.71885073 L93.7091524,4.71885073 L93.7091524,17.2690129 L94.9285327,17.2690129 L98.7428425,7.32572541 L98.7428425,-0.0634120058" id="Fill-14" fill="#D0011B" sketch:type="MSShapeGroup"></path>
        </g>
    </g>
</svg>